<svg width="30" height="30" viewBox="0 0 30 30" xmlns="http://www.w3.org/2000/svg"><title>github-round</title><path d="M15 0C6.718 0 0 6.886 0 15.38c0 6.794 4.298 12.559 10.259 14.593.748.142.991-.335.991-.74V26.37c-4.173.93-5.041-1.815-5.041-1.815-.683-1.777-1.667-2.25-1.667-2.25-1.36-.955.104-.934.104-.934 1.507.107 2.299 1.585 2.299 1.585 1.337 2.35 3.509 1.671 4.365 1.278.134-.993.523-1.673.952-2.056-3.33-.39-6.833-1.71-6.833-7.601 0-1.68.586-3.052 1.545-4.128-.155-.388-.669-1.953.146-4.07 0 0 1.26-.413 4.126 1.576A14.053 14.053 0 0 1 15 7.437c1.275.007 2.559.177 3.757.518 2.864-1.99 4.122-1.576 4.122-1.576.816 2.118.302 3.683.147 4.07.963 1.076 1.544 2.449 1.544 4.128 0 5.907-3.509 7.208-6.849 7.588.538.477 1.029 1.413 1.029 2.848v4.22c0 .41.24.89 1.001.739C25.708 27.935 30 22.172 30 15.379 30 6.886 23.284 0 15 0z" /></svg>