<svg width="31" height="30" viewBox="0 0 31 30" xmlns="http://www.w3.org/2000/svg"><title>instagram-round</title><path d="M22.063 9.11v1.586a.674.674 0 0 1-.673.674h-1.586a.672.672 0 0 1-.673-.674V9.11c0-.371.299-.672.673-.672h1.586c.371 0 .672.3.672.672zM15.5 18.364a3.364 3.364 0 0 0 0-6.727A3.362 3.362 0 0 0 12.136 15a3.362 3.362 0 0 0 3.364 3.364zm5.326-4.114c.035.245.058.495.058.749A5.384 5.384 0 1 1 10.116 15c0-.255.023-.504.058-.749.033-.242.082-.478.147-.708H8.938v7.348c0 .372.3.673.672.673h11.78a.673.673 0 0 0 .672-.673v-7.348H20.68c.062.23.112.466.147.707zM30.5 15c0 8.284-6.716 15-15 15-8.284 0-15-6.716-15-15 0-8.284 6.716-15 15-15 8.284 0 15 6.716 15 15zm-6.25-6.731a2.019 2.019 0 0 0-2.019-2.019H8.77a2.019 2.019 0 0 0-2.02 2.019V21.73a2.02 2.02 0 0 0 2.019 2.02H22.23a2.019 2.019 0 0 0 2.019-2.02V8.269z"/></svg>