<svg width="23" height="18" viewBox="0 0 23 18" xmlns="http://www.w3.org/2000/svg"><title>twitter</title><path d="M19.54 2.846A4.552 4.552 0 0 0 21.536.332c-.877.52-1.85.9-2.885 1.103A4.537 4.537 0 0 0 15.335 0c-2.934 0-5.09 2.737-4.427 5.579A12.9 12.9 0 0 1 1.542.832a4.55 4.55 0 0 0 1.406 6.067A4.525 4.525 0 0 1 .89 6.33c-.05 2.105 1.459 4.075 3.644 4.513-.64.174-1.34.214-2.052.078a4.548 4.548 0 0 0 4.245 3.155A9.137 9.137 0 0 1 0 15.959 12.864 12.864 0 0 0 6.966 18c8.437 0 13.204-7.126 12.916-13.517a9.252 9.252 0 0 0 2.267-2.352 9.073 9.073 0 0 1-2.61.715z"/></svg>