<svg width="31" height="30" viewBox="0 0 31 30" xmlns="http://www.w3.org/2000/svg"><title>twitter-round</title><path d="M15.167 0c-8.284 0-15 6.716-15 15 0 8.284 6.716 15 15 15 8.283 0 15-6.716 15-15 0-8.284-6.717-15-15-15zm7.582 12.056c.229 5.05-3.537 10.68-10.205 10.68-2.027 0-3.914-.595-5.502-1.614a7.223 7.223 0 0 0 5.315-1.486 3.598 3.598 0 0 1-3.355-2.494 3.6 3.6 0 0 0 1.622-.06c-1.726-.348-2.919-1.903-2.88-3.567.485.269 1.038.43 1.626.449A3.596 3.596 0 0 1 8.26 9.17a10.191 10.191 0 0 0 7.4 3.751c-.525-2.245 1.18-4.409 3.498-4.409a3.59 3.59 0 0 1 2.62 1.134 7.161 7.161 0 0 0 2.28-.871 3.605 3.605 0 0 1-1.579 1.986 7.162 7.162 0 0 0 2.061-.566 7.206 7.206 0 0 1-1.79 1.861z"/></svg>