<svg width="47" height="46" viewBox="0 0 47 46" xmlns="http://www.w3.org/2000/svg"><title>Dots</title><g transform="translate(.5)" fill="none" fill-rule="evenodd" opacity=".09"><ellipse fill="#252525" cx="3.002" cy="3" rx="3.002" ry="3"/><ellipse fill="#252525" cx="3.002" cy="13" rx="3.002" ry="3"/><ellipse fill="#444" opacity=".5" cx="3.002" cy="23" rx="3.002" ry="3"/><ellipse fill="#252525" cx="3.002" cy="33" rx="3.002" ry="3"/><ellipse fill="#252525" cx="3.002" cy="43" rx="3.002" ry="3"/><ellipse fill="#444" opacity=".5" cx="13.002" cy="3" rx="3.002" ry="3"/><ellipse fill="#252525" cx="13.002" cy="13" rx="3.002" ry="3"/><ellipse fill="#444" opacity=".5" cx="13.002" cy="23" rx="3.002" ry="3"/><ellipse fill="#252525" cx="13.002" cy="33" rx="3.002" ry="3"/><ellipse fill="#444" opacity=".5" cx="13.002" cy="43" rx="3.002" ry="3"/><ellipse fill="#252525" cx="23.002" cy="3" rx="3.002" ry="3"/><ellipse fill="#444" opacity=".5" cx="23.002" cy="13" rx="3.002" ry="3"/><ellipse fill="#252525" cx="23.002" cy="23" rx="3.002" ry="3"/><ellipse fill="#252525" cx="23.002" cy="33" rx="3.002" ry="3"/><ellipse fill="#252525" cx="23.002" cy="43" rx="3.002" ry="3"/><ellipse fill="#252525" cx="33.002" cy="3" rx="3.002" ry="3"/><ellipse fill="#252525" cx="33.002" cy="13" rx="3.002" ry="3"/><ellipse fill="#444" opacity=".5" cx="33.002" cy="23" rx="3.002" ry="3"/><ellipse fill="#444" opacity=".5" cx="33.002" cy="33" rx="3.002" ry="3"/><ellipse fill="#252525" cx="33.002" cy="43" rx="3.002" ry="3"/><ellipse fill="#252525" cx="43.002" cy="3" rx="3.002" ry="3"/><ellipse fill="#252525" cx="43.002" cy="13" rx="3.002" ry="3"/><ellipse fill="#444" opacity=".5" cx="43.002" cy="23" rx="3.002" ry="3"/><ellipse fill="#252525" cx="43.002" cy="33" rx="3.002" ry="3"/><ellipse fill="#444" opacity=".5" cx="43.002" cy="43" rx="3.002" ry="3"/></g></svg>