<?xml version="1.0" encoding="UTF-8" standalone="no"?>
<svg width="116px" height="119px" viewBox="0 0 116 119" version="1.1" xmlns="http://www.w3.org/2000/svg" xmlns:xlink="http://www.w3.org/1999/xlink">
    <!-- Generator: Sketch 43.2 (39069) - http://www.bohemiancoding.com/sketch -->
    <title>develop-innovative-solutions</title>
    <desc>Created with Sketch.</desc>
    <defs></defs>
    <g id="Views" stroke="none" stroke-width="1" fill="none" fill-rule="evenodd">
        <g id="About" transform="translate(-592.000000, -1674.000000)">
            <g id="Goals" transform="translate(0.000000, 1534.000000)">
                <g id="Item-2" transform="translate(486.000000, 141.000000)">
                    <g id="develop-innovative-solutions" transform="translate(107.000000, 0.000000)">
                        <polyline id="Shape" stroke="#3B71E8" stroke-width="2" points="50 36.2804054 50 15.8458393 113.006579 15.8458393 113.006579 116.315789 73.8403272 116.315789"></polyline>
                        <polyline id="Shape" stroke="#3B71E8" stroke-width="2" points="17.2171053 116.315789 0.111842105 116.315789 0.111842105 41.0526316 68.5328947 41.0526316 68.5328947 116.315789 51.4276316 116.315789"></polyline>
                        <rect id="Rectangle-path" stroke="#3B71E8" stroke-width="2" x="22.3486842" y="100.921053" width="22.2368421" height="15.3947368"></rect>
                        <path d="M33.4671053,101 L33.4671053,116.5" id="Line" stroke="#3B71E8" stroke-width="2"></path>
                        <rect id="Rectangle-path" fill="#3B71E8" x="56.5592105" y="22.2368421" width="11.9736842" height="11.9736842"></rect>
                        <rect id="Rectangle-path" fill="#3B71E8" x="75.375" y="22.2368421" width="11.9736842" height="11.9736842"></rect>
                        <rect id="Rectangle-path" fill="#3B71E8" x="94.1907895" y="22.2368421" width="11.9736842" height="11.9736842"></rect>
                        <rect id="Rectangle-path" fill="#3B71E8" x="75.375" y="41.0526316" width="11.9736842" height="11.9736842"></rect>
                        <rect id="Rectangle-path" fill="#3B71E8" x="94.1907895" y="41.0526316" width="11.9736842" height="11.9736842"></rect>
                        <rect id="Rectangle-path" fill="#3B71E8" x="75.375" y="59.8684211" width="11.9736842" height="11.9736842"></rect>
                        <rect id="Rectangle-path" fill="#3B71E8" x="94.1907895" y="59.8684211" width="11.9736842" height="11.9736842"></rect>
                        <rect id="Rectangle-path" fill="#3B71E8" x="75.375" y="78.6842105" width="11.9736842" height="11.9736842"></rect>
                        <rect id="Rectangle-path" fill="#3B71E8" x="94.1907895" y="78.6842105" width="11.9736842" height="11.9736842"></rect>
                        <rect id="Rectangle-path" fill="#3B71E8" x="75.375" y="97.5" width="11.9736842" height="11.9736842"></rect>
                        <rect id="Rectangle-path" fill="#3B71E8" x="94.1907895" y="97.5" width="11.9736842" height="11.9736842"></rect>
                        <path d="M5.24342105,49.6052632 L17.2171053,49.6052632" id="Shape" stroke="#3B71E8" stroke-width="2"></path>
                        <path d="M20.6381579,49.6052632 L32.6118421,49.6052632" id="Shape" stroke="#3B71E8" stroke-width="2"></path>
                        <path d="M36.0328947,49.6052632 L48.0065789,49.6052632" id="Shape" stroke="#3B71E8" stroke-width="2"></path>
                        <path d="M51.4276316,49.6052632 L61.6907895,49.6052632" id="Shape" stroke="#3B71E8" stroke-width="2"></path>
                        <g id="Group-2" transform="translate(15.230263, 6.000000)" stroke="#3B71E8" stroke-width="2">
                            <path d="M0,1.29320768 L10,1.29320768" id="Shape-Copy-10"></path>
                            <path d="M15.6666667,1.29320768 L25.6666667,1.29320768" id="Shape-Copy-9"></path>
                            <path d="M31.3333333,1.29320768 L41.3333333,1.29320768" id="Shape-Copy-8"></path>
                            <path d="M47,1.29320768 L57,1.29320768" id="Shape-Copy-7"></path>
                        </g>
                        <g id="Group-2-Copy" transform="translate(15.000000, 18.000000)" stroke="#3B71E8" stroke-width="2">
                            <path d="M0,1 L10,1" id="Shape-Copy-10"></path>
                            <path d="M15.6666667,1 L25.6666667,1" id="Shape-Copy-9"></path>
                        </g>
                        <g id="Group-2-Copy-2" transform="translate(15.000000, 30.000000)" stroke="#3B71E8" stroke-width="2">
                            <path d="M0,1 L10,1" id="Shape-Copy-10"></path>
                            <path d="M15.6666667,1 L25.6666667,1" id="Shape-Copy-9"></path>
                        </g>
                        <path d="M5.24342105,56.4473684 L17.2171053,56.4473684" id="Shape" stroke="#3B71E8" stroke-width="2"></path>
                        <path d="M20.6381579,56.4473684 L32.6118421,56.4473684" id="Shape" stroke="#3B71E8" stroke-width="2"></path>
                        <path d="M36.0328947,56.4473684 L48.0065789,56.4473684" id="Shape" stroke="#3B71E8" stroke-width="2"></path>
                        <path d="M51.4276316,56.4473684 L61.6907895,56.4473684" id="Shape" stroke="#3B71E8" stroke-width="2"></path>
                        <path d="M5.24342105,63.2894737 L17.2171053,63.2894737" id="Shape" stroke="#3B71E8" stroke-width="2"></path>
                        <path d="M20.6381579,63.2894737 L32.6118421,63.2894737" id="Shape" stroke="#3B71E8" stroke-width="2"></path>
                        <path d="M36.0328947,63.2894737 L48.0065789,63.2894737" id="Shape" stroke="#3B71E8" stroke-width="2"></path>
                        <path d="M51.4276316,63.2894737 L61.6907895,63.2894737" id="Shape" stroke="#3B71E8" stroke-width="2"></path>
                        <path d="M5.24342105,71.8421053 L17.2171053,71.8421053" id="Shape" stroke="#3B71E8" stroke-width="2"></path>
                        <path d="M20.6381579,71.8421053 L32.6118421,71.8421053" id="Shape" stroke="#3B71E8" stroke-width="2"></path>
                        <path d="M36.0328947,71.8421053 L48.0065789,71.8421053" id="Shape" stroke="#3B71E8" stroke-width="2"></path>
                        <path d="M51.4276316,71.8421053 L61.6907895,71.8421053" id="Shape" stroke="#3B71E8" stroke-width="2"></path>
                        <path d="M5.24342105,78.6842105 L17.2171053,78.6842105" id="Shape" stroke="#3B71E8" stroke-width="2"></path>
                        <path d="M20.6381579,78.6842105 L32.6118421,78.6842105" id="Shape" stroke="#3B71E8" stroke-width="2"></path>
                        <path d="M36.0328947,78.6842105 L48.0065789,78.6842105" id="Shape" stroke="#3B71E8" stroke-width="2"></path>
                        <path d="M51.4276316,78.6842105 L61.6907895,78.6842105" id="Shape" stroke="#3B71E8" stroke-width="2"></path>
                        <path d="M5.24342105,85.5263158 L17.2171053,85.5263158" id="Shape" stroke="#3B71E8" stroke-width="2"></path>
                        <path d="M20.6381579,85.5263158 L32.6118421,85.5263158" id="Shape" stroke="#3B71E8" stroke-width="2"></path>
                        <path d="M36.0328947,85.5263158 L48.0065789,85.5263158" id="Shape" stroke="#3B71E8" stroke-width="2"></path>
                        <path d="M51.4276316,85.5263158 L61.6907895,85.5263158" id="Shape" stroke="#3B71E8" stroke-width="2"></path>
                        <path d="M5.24342105,94.0789474 L17.2171053,94.0789474" id="Shape" stroke="#3B71E8" stroke-width="2"></path>
                        <path d="M20.6381579,94.0789474 L32.6118421,94.0789474" id="Shape" stroke="#3B71E8" stroke-width="2"></path>
                        <path d="M36.0328947,94.0789474 L48.0065789,94.0789474" id="Shape" stroke="#3B71E8" stroke-width="2"></path>
                        <path d="M51.4276316,94.0789474 L61.6907895,94.0789474" id="Shape" stroke="#3B71E8" stroke-width="2"></path>
                        <path d="M5.24342105,100.921053 L17.2171053,100.921053" id="Shape" stroke="#3B71E8" stroke-width="2"></path>
                        <path d="M51.4276316,100.921053 L61.6907895,100.921053" id="Shape" stroke="#3B71E8" stroke-width="2"></path>
                        <path d="M51.4276316,109.473684 L61.6907895,109.473684" id="Shape" stroke="#3B71E8" stroke-width="2"></path>
                        <path d="M5.24342105,109.473684 L17.2171053,109.473684" id="Shape" stroke="#3B71E8" stroke-width="2"></path>
                        <polyline id="Shape" stroke="#3B71E8" stroke-width="2" points="80.5065789 8.55263158 80.5065789 0 6.95394737 0 6.95394737 35.9210526"></polyline>
                    </g>
                </g>
            </g>
        </g>
    </g>
</svg>