<?xml version="1.0" encoding="UTF-8" standalone="no"?>
<svg width="118px" height="117px" viewBox="0 0 118 117" version="1.1" xmlns="http://www.w3.org/2000/svg" xmlns:xlink="http://www.w3.org/1999/xlink">
    <!-- Generator: Sketch 43.2 (39069) - http://www.bohemiancoding.com/sketch -->
    <title>foster-informed-decisions</title>
    <desc>Created with Sketch.</desc>
    <defs></defs>
    <g id="Views" stroke="none" stroke-width="1" fill="none" fill-rule="evenodd">
        <g id="About" transform="translate(-184.000000, -1675.000000)">
            <g id="Goals" transform="translate(0.000000, 1534.000000)">
                <g id="Item-1" transform="translate(80.000000, 141.000000)">
                    <g id="foster-informed-decisions" transform="translate(105.000000, 0.000000)">
                        <path d="M104.427632,112.997368 C104.427632,115.067105 103.538158,116.315789 101.451316,116.315789 L22.5447368,116.315789 C21.6085961,116.413377 20.6753114,116.106746 19.9794614,115.472967 C19.2836114,114.839188 18.8913663,113.938529 18.9013158,112.997368 L18.9013158,86.7065789 C18.9013158,84.6368421 20.475,82.1052632 22.5447368,82.1052632 L101.451316,82.1052632 C103.538158,82.1052632 104.427632,84.6197368 104.427632,86.7065789 L104.427632,94.0789474 L116.486842,99.2194303 L104.427632,105.488158 L104.427632,112.997368 Z" id="Shape" fill="#3B71E8"></path>
                        <path d="M36,95 L70.2105263,95" id="Shape-Copy-2" stroke="#FFFFFF" stroke-width="2" stroke-linejoin="round" transform="translate(53.105263, 95.855263) scale(-1, 1) translate(-53.105263, -95.855263) "></path>
                        <path d="M54,102 L93.3421053,102" id="Shape-Copy" stroke="#FFFFFF" stroke-width="2" stroke-linejoin="round" transform="translate(73.671053, 102.855263) scale(-1, 1) translate(-73.671053, -102.855263) "></path>
                        <path d="M104.427632,30.3276316 C104.427632,32.3973684 103.538158,34.2105263 101.451316,34.2105263 L22.5447368,34.2105263 C21.5465144,34.1792705 20.6016568,33.7524935 19.9182767,33.0241964 C19.2348967,32.2958993 18.8690494,31.3258218 18.9013158,30.3276316 L18.9013158,4.03684211 C18.8227494,1.92680388 20.437715,0.137452316 22.5447368,0 L101.451316,0 C103.538158,3.7981314e-16 104.427632,1.95 104.427632,4.03684211 L104.427632,11.9736842 L116.486842,17.1052632 L104.427632,22.8184211 L104.427632,30.3276316 Z" id="Shape" fill="#3B71E8"></path>
                        <path d="M27.4539474,13.6842105 L46.2697368,13.6842105" id="Shape" stroke="#3B71E8" stroke-width="2" stroke-linejoin="round"></path>
                        <path d="M49.6907895,13.6842105 L83.9013158,13.6842105" id="Shape" stroke="#FFFFFF" stroke-width="2" stroke-linejoin="round"></path>
                        <path d="M27.4539474,20.5263158 L66.7960526,20.5263158" id="Shape" stroke="#FFFFFF" stroke-width="2" stroke-linejoin="round"></path>
                        <path d="M12.0592105,71.6710526 C12.0592105,73.7407895 12.9486842,75.2631579 15.0355263,75.2631579 L93.9421053,75.2631579 C94.9092083,75.2962334 95.8473543,74.9301367 96.5364348,74.2507616 C97.2255152,73.5713866 97.6048814,72.6385275 97.5855263,71.6710526 L97.5855263,45.3631579 C97.5855263,43.2934211 96.0118421,42.7631579 93.9421053,42.7631579 L15.0355263,42.7631579 C12.9486842,42.7631579 12.0592105,43.2934211 12.0592105,45.3631579 L12.0592105,53.0263158 L0,59.0141887 L12.0592105,64.1447368 L12.0592105,71.6710526 Z" id="Shape" stroke="#3B71E8" stroke-width="2" stroke-linejoin="round"></path>
                        <path d="M20.6118421,54.7368421 L59.9539474,54.7368421" id="Shape" stroke="#3B71E8" stroke-width="2" stroke-linejoin="round"></path>
                        <path d="M20.6118421,61.5789474 L42.8486842,61.5789474" id="Shape" stroke="#3B71E8" stroke-width="2" stroke-linejoin="round"></path>
                        <path d="M44.5592105,61.5789474 L78.7697368,61.5789474" id="Shape" stroke="#3B71E8" stroke-width="2" stroke-linejoin="round"></path>
                    </g>
                </g>
            </g>
        </g>
    </g>
</svg>