<?xml version="1.0" encoding="UTF-8" standalone="no"?>
<svg width="155px" height="189px" viewBox="0 0 155 189" version="1.1" xmlns="http://www.w3.org/2000/svg" xmlns:xlink="http://www.w3.org/1999/xlink">
    <!-- Generator: Sketch 43.2 (39069) - http://www.bohemiancoding.com/sketch -->
    <title>homepage-lightbulb</title>
    <desc>Created with Sketch.</desc>
    <defs></defs>
    <g id="Views" stroke="none" stroke-width="1" fill="none" fill-rule="evenodd">
        <g id="Homepage" transform="translate(-230.000000, -1157.000000)">
            <g id="About-Section" transform="translate(151.000000, 1100.000000)">
                <g id="Main-Project">
                    <g id="homepage-lightbulb" transform="translate(80.000000, 58.000000)">
                        <g id="Group-8" transform="translate(19.887324, 22.309391)">
                            <path d="M21.928132,135 L91.1845888,135" id="Shape" stroke="#3B71E8" stroke-width="2"></path>
                            <path d="M21.928132,146 L91.1845888,146" id="Shape" stroke="#3B71E8" stroke-width="2"></path>
                            <path d="M82.5152376,146.731531 L82.5152376,105.617129 C101.161207,96.2681178 111.656224,77.1185806 111.656224,55.9770665 C111.656223,25.2685364 86.6894869,0.374354507 55.8914574,0.374354507 C25.0934279,0.374354507 0.126691831,25.2685364 0.126691182,55.9770665 C0.126691182,77.1451403 10.595071,96.2681178 29.2410401,105.617129 L29.2410401,146.731531" id="Shape" stroke="#3B71E8" stroke-width="2"></path>
                            <path d="M48,135.828779 L48,101.30118" id="Shape" stroke="#3B71E8" stroke-width="2"></path>
                            <path d="M56.187539,157 L69.4382849,157" id="Shape-Copy-5" stroke="#3B71E8" stroke-width="2"></path>
                            <path d="M56.187539,152 L69.4382849,152" id="Shape-Copy-6" stroke="#3B71E8" stroke-width="2"></path>
                            <path d="M63,135.828779 L63,101.30118" id="Shape" stroke="#3B71E8" stroke-width="2"></path>
                            <path d="M85.165629,55.9249698 C85.1477763,60.3636156 88.470153,64.1104183 92.8903876,64.6365485 C91.9593412,68.6175446 90.3849456,72.4209952 88.2288953,75.8978575 C84.7765247,72.6849635 79.3917746,72.7774879 76.0524776,76.1070809 C72.7131806,79.4366738 72.6203865,84.8057758 75.8426444,88.2481138 C72.3558651,90.3983204 68.5412582,91.9681701 64.5485145,92.8960598 C64.0575703,88.4835879 60.3173015,85.1450464 55.8648203,85.1450464 C51.4123392,85.1450464 47.6720703,88.4835879 47.1811261,92.8960598 C43.1883825,91.9681701 39.3737756,90.3983204 35.8869963,88.2481138 C39.3220761,84.8450189 39.3399648,79.3096754 35.9269518,75.8845778 C32.5139387,72.4594802 26.9624625,72.4416434 23.5273824,75.8447381 C21.3713321,72.3678758 19.7969365,68.5644252 18.8658902,64.5834291 C23.291222,64.0939116 26.6394937,60.364512 26.6394937,55.9249698 C26.6394937,51.4854276 23.291222,47.7560281 18.8658902,47.2665106 C19.7969365,43.2855145 21.3713321,39.4820639 23.5273824,36.0052016 C26.9797531,39.2180955 32.3645032,39.1255711 35.7038002,35.7959782 C39.0430972,32.4663852 39.1358912,27.0972832 35.9136334,23.6549452 C39.4004127,21.5047386 43.2150196,19.9348889 47.2077632,19.0069993 C47.6987074,23.4194711 51.4389763,26.7580127 55.8914574,26.7580127 C60.3439386,26.7580127 64.0842074,23.4194711 64.5751516,19.0069993 C68.5678953,19.9348889 72.3825022,21.5047386 75.8692815,23.6549452 C72.6470236,27.0972832 72.7398177,32.4663852 76.0791147,35.7959782 C79.4184117,39.1255711 84.8031618,39.2180955 88.2555324,36.0052016 C90.4115827,39.4820639 91.9859783,43.2855145 92.9170247,47.2665106 C88.5064299,47.7778698 85.176402,51.4975755 85.165629,55.9249698 Z M55.8648203,67.6112339 C62.3377762,67.6112339 67.5851438,62.3791153 67.5851438,55.9249698 C67.5851438,49.4708244 62.3377762,44.2387058 55.8648203,44.2387058 C49.3918644,44.2387058 44.1444969,49.4708244 44.1444969,55.9249698 C44.1444969,62.3791153 49.3918644,67.6112339 55.8648203,67.6112339 Z" id="Combined-Shape" fill="#3B71E8"></path>
                            <rect id="Rectangle-23" stroke="#3B71E8" stroke-width="2" x="41.8982169" y="146.351645" width="28.5786443" height="17.3983699"></rect>
                        </g>
                        <g id="Group-Copy-3" transform="translate(0.000000, 80.731382)" stroke="#3B71E8" stroke-width="2" stroke-linecap="square">
                            <path d="M147.309859,1 L152.309859,1" id="Line"></path>
                            <path d="M0.169502445,1 L5.16950244,1" id="Line-Copy-2" transform="translate(2.669502, 1.000000) scale(-1, 1) translate(-2.669502, -1.000000) "></path>
                        </g>
                        <g id="Group-Copy-5" transform="translate(142.252057, 44.050982) rotate(-30.000000) translate(-142.252057, -44.050982) translate(137.252057, 42.550982)" stroke="#3B71E8" stroke-width="2" stroke-linecap="square">
                            <path d="M1.26217745e-29,1 L10,1" id="Line"></path>
                        </g>
                        <g id="Group-Copy-6" transform="translate(113.192069, 18.177212) rotate(-60.000000) translate(-113.192069, -18.177212) translate(110.692069, 16.677212)" stroke="#3B71E8" stroke-width="2" stroke-linecap="square">
                            <path d="M-5.68434189e-14,1 L5,1" id="Line"></path>
                        </g>
                        <g id="Group-Copy-7" transform="translate(76.332227, 5.628647) rotate(-90.000000) translate(-76.332227, -5.628647) translate(71.332227, 4.128647)" stroke="#3B71E8" stroke-width="2" stroke-linecap="square">
                            <path d="M0,1 L10,1" id="Line"></path>
                        </g>
                        <g id="Group-Copy-8" transform="translate(39.382210, 17.845652) rotate(-120.000000) translate(-39.382210, -17.845652) translate(36.882210, 16.345652)" stroke="#3B71E8" stroke-width="2" stroke-linecap="square">
                            <path d="M2.4158453e-13,1 L5,1" id="Line"></path>
                        </g>
                        <g id="Group-Copy-9" transform="translate(10.079503, 43.476703) rotate(-150.000000) translate(-10.079503, -43.476703) translate(5.079503, 41.976703)" stroke="#3B71E8" stroke-width="2" stroke-linecap="square">
                            <path d="M3.90798505e-13,1 L10,1" id="Line"></path>
                        </g>
                    </g>
                </g>
            </g>
        </g>
    </g>
</svg>