<svg viewBox="0 0 134 66" preserveAspectRatio="xMidyMid meet" xmlns="http://www.w3.org/2000/svg"><title>Logo</title><path d="M34.83 3.955L30.747.5l-4.082 3.455H0V65.5h61.502V3.955H34.83zM16.628 54.01h-2.024V18.706h2.027v35.303h-.003zm6.055-13.579H20.66V18.702h2.027V40.43h-.004zm6.055 13.579h-2.023V18.706h2.027v35.303h-.004zm6.056 0H32.77V18.706h2.027v35.303h-.004zm6.055 0h-2.023V18.706h2.027v35.303h-.004zm6.056-13.579h-2.023V18.702h2.026V40.43h-.003zm35.21-14.554v-7.911h-.028l-3.43 7.882h-.766l-3.459-7.882h-.028v7.91h-1.268V16.22h1.88l3.306 7.605 3.291-7.605h1.856v9.657h-1.353zm4.952 0V16.22h5.297l-.154 1.062h-3.779v3.138h3.252v1.061h-3.252v3.334h4.057l-.153 1.062h-5.268zm11.794-8.567v8.567h-1.35V17.31h-2.764v-1.09h6.892l-.157 1.09h-2.621zm10.992 8.567l-1.143-2.315a4.545 4.545 0 0 0-1.087-1.521 2.137 2.137 0 0 0-1.368-.431h-.502v4.274h-1.368V16.22h2.494a3.608 3.608 0 0 1 2.294.677 2.23 2.23 0 0 1 .858 1.849 2.32 2.32 0 0 1-.598 1.57c-.4.46-.948.765-1.55.859v.029c.43.127.824.354 1.15.662.444.448.806.97 1.07 1.542l1.253 2.469h-1.503zm-3.655-8.595h-.445v3.28h.445a3.227 3.227 0 0 0 1.732-.391c.428-.3.662-.806.612-1.326a1.322 1.322 0 0 0-.559-1.207 3.427 3.427 0 0 0-1.78-.356h-.005zm8.425 7.309a5.2 5.2 0 0 1-1.254-3.562 5.104 5.104 0 0 1 1.275-3.562 4.794 4.794 0 0 1 6.768-.021 5.072 5.072 0 0 1 1.282 3.562 5.18 5.18 0 0 1-1.26 3.562 4.773 4.773 0 0 1-6.826 0l.015.021zm1.054-6.365c-.582.674-.873 1.61-.873 2.81s.298 2.129.894 2.79a3.256 3.256 0 0 0 4.699.024c.567-.665.851-1.63.851-2.896a3.872 3.872 0 0 0-.922-2.721 2.989 2.989 0 0 0-2.302-1.005 2.942 2.942 0 0 0-2.35 1.012l.003-.014zm-42.541 14.74h1.368v9.656h-1.368v-9.657zm7.95 9.652h-2.97v-9.653h2.956c1.553 0 2.787.43 3.7 1.29.915.86 1.373 2.024 1.376 3.494 0 1.534-.451 2.73-1.354 3.587-.902.857-2.138 1.285-3.708 1.282zm-.278-8.595h-1.325v7.534h1.069c1.425 0 2.47-.304 3.138-.912.667-.608 1.007-1.541 1.019-2.8 0-1.284-.35-2.243-1.048-2.874a4.075 4.075 0 0 0-2.85-.948h-.003zm8.56 8.6v-9.658h5.297l-.154 1.062h-3.779v3.138h3.252v1.062h-3.252v3.334h4.057l-.153 1.061h-5.268zm11.156-9.658h1.158l3.54 9.657h-1.424l-1.033-2.85h-3.516l-1.019 2.85h-1.325l3.62-9.657zm.517 1.746l-1.425 4.004h2.817l-1.392-4.004zm6.817 6.305c.345.177.702.328 1.069.452.392.129.802.193 1.215.189.397.014.788-.1 1.115-.328.312-.251.479-.64.445-1.04a1.453 1.453 0 0 0-.567-1.122 9.685 9.685 0 0 0-1.617-1.069 4.873 4.873 0 0 1-1.574-1.254 2.522 2.522 0 0 1-.524-1.578 2.137 2.137 0 0 1 .837-1.78 3.334 3.334 0 0 1 2.138-.663c.412-.002.823.042 1.225.132a5.93 5.93 0 0 1 1.115.356l-.417 1.069a6.294 6.294 0 0 0-.912-.328 3.49 3.49 0 0 0-.926-.132 2.023 2.023 0 0 0-1.232.32 1.115 1.115 0 0 0-.424.948c0 .622.49 1.192 1.47 1.71a9.087 9.087 0 0 1 2.138 1.442c.46.476.702 1.12.67 1.782a2.44 2.44 0 0 1-.816 1.905 3.063 3.063 0 0 1-2.137.734 6.19 6.19 0 0 1-1.464-.16 5.486 5.486 0 0 1-1.283-.495l.456-1.09zM75.54 55.55a4.723 4.723 0 0 1-.552-.103l-.488-.11v4.025h-1.368V49.71h2.412c1.132 0 1.99.25 2.571.751.596.534.917 1.31.873 2.109a3.03 3.03 0 0 1-.823 2.137c-.532.58-1.29.9-2.076.88-.185 0-.37-.012-.553-.036h.004zm-.274-4.794H74.5V54.3c.209.071.423.125.641.16.19.025.382.037.574.036a1.706 1.706 0 0 0 1.827-1.827 1.76 1.76 0 0 0-.57-1.447 2.643 2.643 0 0 0-1.703-.466h-.003zm12.064 8.606l-1.129-2.316a4.545 4.545 0 0 0-1.086-1.52 2.137 2.137 0 0 0-1.368-.432h-.502v4.275h-1.368v-9.66h2.493a3.608 3.608 0 0 1 2.294.676 2.23 2.23 0 0 1 .859 1.849c.003.58-.21 1.14-.599 1.57a2.575 2.575 0 0 1-1.55.86v.028c.43.128.825.355 1.151.662.444.448.806.97 1.069 1.543l1.254 2.468H87.37l-.04-.003zm-3.654-8.596h-.446v3.281h.446a3.224 3.224 0 0 0 1.73-.392c.429-.299.663-.805.614-1.325a1.322 1.322 0 0 0-.56-1.207 3.427 3.427 0 0 0-1.78-.357h-.004zM92.1 58.08a5.2 5.2 0 0 1-1.254-3.562 5.104 5.104 0 0 1 1.275-3.562 4.794 4.794 0 0 1 6.768-.021 5.072 5.072 0 0 1 1.283 3.562 5.18 5.18 0 0 1-1.261 3.562 4.773 4.773 0 0 1-6.825 0l.014.021zm1.054-6.365c-.581.674-.872 1.611-.872 2.81 0 1.2.298 2.13.894 2.79a3.256 3.256 0 0 0 4.698 0c.568-.665.851-1.63.851-2.896a3.872 3.872 0 0 0-.922-2.722 2.989 2.989 0 0 0-2.301-1.004 2.942 2.942 0 0 0-2.351 1.011l.003.01zm8.079 9.365c.81-.093 1.38-.363 1.71-.81a3.284 3.284 0 0 0 .495-1.965V49.71h1.368v8.58c0 1.219-.263 2.135-.787 2.75-.525.615-1.336.972-2.433 1.069l-.353-1.03zm7.17-1.717V49.71h5.297l-.153 1.061h-3.78v3.138h3.253v1.062h-3.252v3.334h4.057l-.153 1.058h-5.269zm14.96-8.086a4.107 4.107 0 0 0-1.032-.413 4.396 4.396 0 0 0-1.086-.146 3.26 3.26 0 0 0-2.53 1.047 3.836 3.836 0 0 0-.954 2.718 4.007 4.007 0 0 0 .969 2.824 3.245 3.245 0 0 0 2.493 1.069c.448.004.893-.065 1.318-.203a4.987 4.987 0 0 0 1.233-.634l.559.962a5.617 5.617 0 0 1-1.486.78c-.546.18-1.12.27-1.695.263a4.716 4.716 0 0 1-3.52-1.368 4.851 4.851 0 0 1-1.346-3.562A4.962 4.962 0 0 1 117.661 51a4.738 4.738 0 0 1 3.562-1.425c.451 0 .901.053 1.34.16.433.106.85.268 1.243.481l-.442 1.062zm7.1-.481v8.567h-1.354v-8.567h-2.76V49.71h6.889l-.153 1.086h-2.622z" fill="#FFF"/></svg>