<?xml version="1.0" encoding="utf-8"?>
<!-- Generator: Adobe Illustrator 19.2.1, SVG Export Plug-In . SVG Version: 6.00 Build 0)  -->
<svg version="1.1" id="Layer_1" xmlns="http://www.w3.org/2000/svg" xmlns:xlink="http://www.w3.org/1999/xlink" x="0px" y="0px"
   viewBox="0 0 374 182" style="enable-background:new 0 0 374 182;" xml:space="preserve">
<style type="text/css">
  .st0{fill:#1E3567;}
  .st1{fill:#FFFFFF;}
  .st2{fill:#6E6F71;}
</style>
<title>Metro Ideas Project logo</title>
<polygon class="st0" points="86.3,0 74.9,9.7 0,9.7 0,182 172.6,182 172.6,9.7 97.8,9.7 "/>
<rect x="41.2" y="51.2" class="st1" width="5.3" height="98.5"/>
<rect x="58.2" y="51.2" class="st1" width="5.3" height="60.5"/>
<rect x="75.2" y="51.2" class="st1" width="5.3" height="98.5"/>
<rect x="92.2" y="51.2" class="st1" width="5.3" height="98.5"/>
<rect x="109.2" y="51.2" class="st1" width="5.3" height="98.5"/>
<rect x="126.1" y="51.2" class="st1" width="5.3" height="60.5"/>
<polygon class="st2" points="230.5,71.1 230.5,48.9 230.4,48.9 220.8,71 218.6,71 208.9,48.9 208.9,48.9 208.9,71.1 205.3,71.1 
  205.3,44 210.6,44 219.9,65.3 229.1,44 234.3,44 234.3,71.1 "/>
<polygon class="st2" points="244.4,71.1 244.4,44 259.3,44 258.8,47 248.2,47 248.2,55.8 257.4,55.8 257.4,58.7 248.2,58.7 
  248.2,68.1 259.6,68.1 259.2,71.1 "/>
<polygon class="st2" points="277.5,47.1 277.5,71.1 273.7,71.1 273.7,47.1 266,47.1 266,44 285.3,44 284.9,47.1 "/>
<path class="st2" d="M308.4,71l-3.2-6.5c-0.7-1.6-1.7-3.1-3-4.3c-1.1-0.8-2.5-1.3-3.8-1.2h-1.4v12H293V44h7c2.3-0.1,4.6,0.5,6.4,1.9
  c1.6,1.2,2.5,3.2,2.4,5.2c0,1.6-0.6,3.2-1.7,4.4c-1.1,1.3-2.7,2.1-4.3,2.4V58c1.2,0.4,2.3,1,3.2,1.9c1.2,1.3,2.3,2.7,3,4.3l3.5,6.9
  L308.4,71L308.4,71z M298.1,47h-1.2v9.2h1.2c1.7,0.1,3.4-0.3,4.9-1.1c1.2-0.8,1.9-2.3,1.7-3.7c0.1-1.3-0.5-2.6-1.6-3.4
  C301.6,47.2,299.8,46.9,298.1,47"/>
<path class="st2" d="M321.7,67.5c-2.4-2.8-3.6-6.3-3.5-9.9c-0.1-3.6,1.2-7.2,3.6-9.9c5.2-5.2,13.7-5.3,19-0.1
  c2.5,2.7,3.7,6.3,3.6,10c0.1,3.6-1.2,7.2-3.5,9.9c-5.2,5.3-13.7,5.4-19,0.2C321.8,67.6,321.8,67.5,321.7,67.5 M324.7,49.7
  c-1.6,1.9-2.5,4.5-2.5,7.9c0,3.4,0.8,6,2.5,7.8c3.5,3.6,9.3,3.7,13,0.2c0.1-0.1,0.2-0.2,0.2-0.2c1.6-1.9,2.4-4.6,2.4-8.1
  c0.2-2.8-0.8-5.5-2.6-7.6c-1.6-1.8-4-2.9-6.5-2.8C328.8,46.7,326.4,47.8,324.7,49.7"/>
<rect x="205.3" y="90.9" class="st2" width="3.8" height="27"/>
<path class="st2" d="M227.6,117.9h-8.3v-27h8.3c4.4,0,7.8,1.2,10.4,3.6c2.6,2.4,3.9,5.7,3.9,9.8c0,4.3-1.3,7.6-3.8,10
  C235.5,116.7,232,117.9,227.6,117.9 M226.8,93.9h-3.7V115h3c4,0,6.9-0.9,8.8-2.6c1.9-1.7,2.8-4.3,2.9-7.8c0-3.6-1-6.3-2.9-8
  C232.6,94.7,229.7,93.8,226.8,93.9"/>
<polygon class="st2" points="250.9,117.9 250.9,90.9 265.7,90.9 265.3,93.9 254.7,93.9 254.7,102.7 263.8,102.7 263.8,105.6 
  254.7,105.6 254.7,115 266.1,115 265.6,117.9 "/>
<path class="st2" d="M282.2,90.9h3.2l9.9,27h-4l-2.9-8h-9.9l-2.9,8H272L282.2,90.9z M283.6,95.8L283.6,95.8l-4,11.2h7.9L283.6,95.8z
  "/>
<path class="st2" d="M302.8,113.4c1,0.5,2,0.9,3,1.3c1.1,0.4,2.2,0.5,3.4,0.5c1.1,0,2.2-0.3,3.1-0.9c0.9-0.7,1.3-1.8,1.2-2.9
  c0-1.2-0.6-2.4-1.6-3.2c-1.4-1.1-2.9-2.1-4.5-3c-1.7-0.9-3.2-2.1-4.4-3.5c-1-1.3-1.5-2.8-1.5-4.4c-0.1-1.9,0.8-3.8,2.3-5
  c1.7-1.3,3.8-1.9,6-1.9c1.2,0,2.3,0.1,3.4,0.4c1.1,0.2,2.1,0.6,3.1,1l-1.2,3c-0.8-0.4-1.7-0.7-2.6-0.9c-0.8-0.2-1.7-0.4-2.6-0.4
  c-1.2-0.1-2.4,0.2-3.5,0.9c-0.8,0.6-1.3,1.6-1.2,2.7c0,1.7,1.4,3.3,4.1,4.8c2.2,1,4.2,2.4,6,4c1.3,1.3,2,3.1,1.9,5
  c0.1,2-0.8,4-2.3,5.3c-1.7,1.4-3.8,2.2-6,2c-1.4,0-2.8-0.1-4.1-0.5c-1.3-0.3-2.5-0.8-3.6-1.4L302.8,113.4z"/>
<path class="st2" d="M212,154.2c-0.5-0.1-1-0.2-1.5-0.3l-1.4-0.3v11.2h-3.8v-27h6.8c3.2,0,5.6,0.7,7.2,2.1c1.7,1.5,2.6,3.7,2.5,5.9
  c0,2.2-0.8,4.4-2.3,6c-1.5,1.6-3.6,2.5-5.8,2.5C213.1,154.3,212.6,154.3,212,154.2 M211.3,140.8h-2.1v9.9c0.6,0.2,1.2,0.4,1.8,0.5
  c0.5,0.1,1.1,0.1,1.6,0.1c2.6,0.2,4.9-1.8,5.1-4.4c0-0.2,0-0.5,0-0.7c0.1-1.5-0.5-3-1.6-4C214.7,141.1,213,140.7,211.3,140.8"/>
<path class="st2" d="M245.1,164.8l-3.2-6.5c-0.7-1.6-1.7-3.1-3-4.3c-1.1-0.8-2.5-1.3-3.8-1.2h-1.4v12h-3.9v-27h7
  c2.3-0.1,4.6,0.5,6.4,1.9c1.6,1.2,2.5,3.2,2.4,5.2c0,1.6-0.6,3.2-1.7,4.4c-1.1,1.3-2.7,2.1-4.3,2.4v0.1c1.2,0.4,2.3,1,3.2,1.9
  c1.2,1.3,2.3,2.7,3,4.3l3.5,6.9L245.1,164.8L245.1,164.8z M234.9,140.8h-1.2v9.2h1.2c1.7,0.1,3.4-0.3,4.9-1.1
  c1.2-0.8,1.9-2.3,1.7-3.7c0.1-1.3-0.5-2.6-1.6-3.4C238.3,141,236.6,140.6,234.9,140.8"/>
<path class="st2" d="M258.5,161.2c-2.4-2.8-3.6-6.3-3.5-9.9c-0.1-3.6,1.2-7.2,3.6-9.9c5.2-5.2,13.7-5.3,19-0.1
  c2.5,2.7,3.7,6.3,3.6,10c0.1,3.6-1.2,7.2-3.5,9.9c-5.2,5.3-13.7,5.4-19,0.2C258.6,161.4,258.5,161.3,258.5,161.2 M261.5,143.5
  c-1.6,1.9-2.5,4.5-2.5,7.9c0,3.4,0.8,6,2.5,7.8c3.5,3.6,9.3,3.7,13,0.2c0.1-0.1,0.2-0.2,0.2-0.2c1.6-1.9,2.4-4.6,2.4-8.1
  c0.2-2.8-0.8-5.5-2.6-7.6c-1.6-1.8-4-2.9-6.5-2.8C265.6,140.5,263.1,141.5,261.5,143.5"/>
<path class="st2" d="M284.2,169.6c2.3-0.3,3.9-1,4.8-2.3c1-1.6,1.5-3.6,1.4-5.5v-24.1h3.8v24c0,3.4-0.7,6-2.2,7.7
  c-1.5,1.7-3.8,2.7-6.8,3L284.2,169.6z"/>
<polygon class="st2" points="304.3,164.8 304.3,137.8 319.2,137.8 318.7,140.8 308.1,140.8 308.1,149.5 317.2,149.5 317.2,152.5 
  308.1,152.5 308.1,161.9 319.5,161.9 319.1,164.8 "/>
<path class="st2" d="M346.3,142.2c-0.9-0.5-1.9-0.9-2.9-1.1c-1-0.3-2-0.4-3-0.4c-2.7-0.1-5.3,1-7.1,2.9c-1.8,2.1-2.8,4.8-2.7,7.5
  c-0.1,2.9,0.8,5.7,2.7,7.9c1.8,2,4.3,3.1,7,3c1.3,0,2.5-0.2,3.7-0.6c1.2-0.4,2.4-1,3.5-1.8l1.6,2.7c-1.3,0.9-2.7,1.7-4.2,2.2
  c-1.5,0.5-3.1,0.8-4.8,0.7c-3.7,0.2-7.3-1.2-9.9-3.8c-2.6-2.7-3.9-6.3-3.8-10c-0.1-3.8,1.3-7.4,3.9-10.1c2.6-2.7,6.3-4.1,10-3.9
  c1.3,0,2.5,0.1,3.8,0.5c1.2,0.3,2.4,0.8,3.5,1.4L346.3,142.2z"/>
<polygon class="st2" points="366.2,140.8 366.2,164.8 362.4,164.8 362.4,140.8 354.7,140.8 354.7,137.8 374,137.8 373.6,140.8 "/>
</svg>