<?xml version="1.0" encoding="UTF-8"?>
<svg width="488px" height="137px" viewBox="0 0 488 137" version="1.1" xmlns="http://www.w3.org/2000/svg" xmlns:xlink="http://www.w3.org/1999/xlink">
    <!-- Generator: Sketch 50.2 (55047) - http://www.bohemiancoding.com/sketch -->
    <title>economy-tag</title>
    <desc>Created with Sketch.</desc>
    <defs></defs>
    <g id="Page-1" stroke="none" stroke-width="1" fill="none" fill-rule="evenodd">
        <g id="economy-tag" fill-rule="nonzero">
            <polygon id="Shape" fill="#3b71e8" points="8.12 59.07 0.65 68.1 8.12 77.13 8.12 136.16 141.16 136.16 141.16 0.03 8.12 0.03"></polygon>
            <polygon id="Rectangle-path" fill="#3b71e8" points="132.51 0.03 487.53 0.03 487.53 136.16 132.51 136.16"></polygon>
            <path d="M66.12,87.79 C60.3922133,96.6043917 50.6314263,101.965316 40.12,102.07 C30.12,102.07 24.51,95.9 24.51,85.25 C24.51,73.51 30.2,60.32 40.36,52.46 C44.9000525,48.9552999 50.4647042,47.0371813 56.2,47 C66.36,47 69.75,53.05 69.75,59.34 C69.75,65.03 65.39,68.17 61.16,70.11 C54.87,73.01 43.37,75.56 36.35,76.4 C35.8035867,79.1907128 35.5190176,82.0263608 35.5,84.87 C35.5,91.77 38.04,96.97 44.82,96.97 C53.17,96.97 59.82,91.52 63.94,81.72 L65.76,81.72 L66.12,87.79 Z M37.12,72.54 C42.57,71.93 50.19,70 53.7,68.3 C57.9794417,66.5165218 60.7212361,62.2846216 60.6,57.65 C60.6,53.17 58.54,50.65 54.91,50.65 C49.91,50.64 42,55.36 37.08,72.54 L37.12,72.54 Z" id="Shape" fill="#FFFFFF"></path>
            <path d="M120.45,87.67 C116.34,94.81 107.26,102.07 95.77,102.07 C84.64,102.07 78.95,96.14 78.95,84.52 C78.95,72.9 84.88,59.96 95.04,52.58 C99.64,49.31 104.72,47.01 111.13,47.01 C120.45,47.01 124.8,52.01 124.8,57.9 C124.8,62.9 121.53,65.4 118.51,65.4 C117.204609,65.5399051 115.920442,64.9906304 115.12,63.95 C114.397198,62.9677003 114.259622,61.6721949 114.76,60.56 C115.434533,59.123369 115.854116,57.5803863 116,56 C116,52.85 114.43,50.56 110.07,50.56 C104.99,50.56 99.9,54.31 95.43,62.78 C91.8488899,69.615783 89.9399902,77.2034023 89.86,84.92 C89.86,92.66 93.37,97.26 99.54,97.26 C107.77,97.26 114.18,91.45 118.42,81.89 L120.11,81.89 L120.45,87.67 Z" id="Shape" fill="#FFFFFF"></path>
            <path d="M182.4,65.16 C182.52,76.78 176.47,90.57 166.91,97.23 C162.131421,100.562929 156.402958,102.260771 150.58,102.07 C142.58,102.07 132.91,98.92 132.91,84.52 C132.91,72.66 139.32,58.75 149.25,51.97 C153.80709,48.7212209 159.263428,46.973515 164.86,46.97 C176.23,47 182.4,53.43 182.4,65.16 Z M152.63,57.9 C147.43,65.04 143.19,78.71 143.19,87.55 C143.19,95.78 147.19,98.55 151.42,98.55 C155.05,98.55 158.42,96.98 161.58,93.23 C167.58,85.85 172.35,70.48 172.35,60.92 C172.35,54.87 170.05,50.51 164.61,50.51 C160.25,50.52 156.38,52.7 152.63,57.9 Z" id="Shape" fill="#FFFFFF"></path>
            <path d="M249.31,87.19 C244.31,96.99 236.6,102.19 229.59,102.19 C222.58,102.19 222.59,95.53 225.59,87.43 C228.74,78.6 232.85,67.71 235.59,59.84 C236.92,56.21 236.44,52.7 232.69,52.7 C222.04,52.7 210.79,71.33 206.19,83.92 C204.5,88.52 202.68,93 200.38,100.62 C196.63,100.74 192.88,101.22 189.85,101.62 C195.42,86.62 202.19,63.87 203.85,55.28 C204.09,53.71 203.85,53.22 202.76,53.1 L195.26,53.22 L196.47,49.95 C202.993074,49.5264129 209.469116,48.5563446 215.83,47.05 C213.89,53.58 211.83,61.45 209.9,67.86 C216.68,57.7 225.9,47.05 237.97,47.05 C240.157397,46.924577 242.313431,47.6159335 244.02,48.99 C247.41,51.99 246.2,58.79 244.5,63.27 C241.35,72.1 236.88,83.6 234.09,92.55 C233.36,94.73 233.73,96.18 235.09,96.18 C238.48,96.18 243.8,90.86 246.95,84.68 L249.31,87.19 Z" id="Shape" fill="#FFFFFF"></path>
            <path d="M308.6,65.16 C308.72,76.78 302.67,90.57 293.11,97.23 C288.331421,100.562929 282.602958,102.260771 276.78,102.07 C268.78,102.07 259.11,98.92 259.11,84.52 C259.11,72.66 265.52,58.75 275.45,51.97 C280.00709,48.7212209 285.463428,46.973515 291.06,46.97 C302.43,47 308.6,53.43 308.6,65.16 Z M278.83,57.9 C273.63,65.04 269.39,78.71 269.39,87.55 C269.39,95.78 273.39,98.55 277.62,98.55 C281.25,98.55 284.62,96.98 287.78,93.23 C293.78,85.85 298.55,70.48 298.55,60.92 C298.55,54.87 296.25,50.51 290.81,50.51 C286.45,50.52 282.58,52.7 278.83,57.9 Z" id="Shape" fill="#FFFFFF"></path>
            <path d="M407.09,87.19 C402.09,97.11 394.38,102.19 387.37,102.19 C379.99,102.19 380.23,95.53 383.13,87.67 C386.64,78.23 390.63,68.31 393.66,59.96 C394.99,56.21 394.39,52.82 390.88,52.82 C380.96,52.82 368.88,71.7 364.14,84.89 C362.57,89 360.75,93.48 358.57,100.62 C354.7,100.74 350.57,101.22 347.8,101.47 C352.28,89.61 359.3,68.19 361.47,59.97 C362.32,56.7 362.47,52.83 358.57,52.83 C350.22,52.83 338,69.04 332.19,84.77 C330.5,89.13 328.8,93.85 326.62,100.62 C322.99,100.86 318.88,101.22 316.09,101.62 C322.26,85.04 328.55,63.87 330.25,55.4 C330.61,53.71 330.25,53.1 328.56,53.1 L321.56,53.22 L322.65,49.95 C328.22,49.35 336.81,48.62 342.37,47.05 C340.68,52.86 338.13,62.54 336.32,67.86 C342.61,58.78 351.81,47.05 364.15,47.05 C372.38,47.05 372.5,54.31 370.44,61.21 C369.83,63.39 369.35,65.08 368.62,67.38 C374.91,58.06 384.47,47.05 396.45,47.05 C399.45,47.05 401.45,48.05 402.62,49.35 C405.77,52.62 404.07,59.35 402.62,63.14 C399.23,72.46 393.91,86.14 391.85,92.54 C391.12,94.6 391.25,96.29 392.85,96.29 C396.36,96.29 401.85,90.72 404.71,84.67 L407.09,87.19 Z" id="Shape" fill="#FFFFFF"></path>
            <path d="M416.28,50 C421.97,49.76 430.28,48.79 435.52,47 C435.28,56.68 436.73,79.55 437.34,90.2 C441.21,82.82 445.57,74.2 450.53,65.39 C456.46,54.74 462.39,47 472.07,46.88 L472.43,49.88 C466.86,51.21 460.21,59.56 454.76,68.15 C447.14,80.15 439.03,94.77 432.76,106.75 C423.56,124.17 417.64,129.75 409.65,129.75 C403.65,129.75 401.06,125.64 401.06,121.88 C400.871774,118.674874 403.306155,115.918888 406.51,115.71 C408.272668,115.715401 409.811409,116.905361 410.26,118.61 C410.99,121.27 412.2,122.48 414.01,122.48 C418.61,122.48 423.09,117.16 429.74,103.6 C428.53,102.27 428.17,99.73 427.92,96.82 C427.44,82.82 425.74,62.33 424.92,56.04 C424.56,53.5 423.47,53.14 415.36,53.38 L416.28,50 Z" id="Shape" fill="#FFFFFF"></path>
        </g>
    </g>
</svg>