<?xml version="1.0" encoding="UTF-8"?>
<svg width="781px" height="138px" viewBox="0 0 781 138" version="1.1" xmlns="http://www.w3.org/2000/svg" xmlns:xlink="http://www.w3.org/1999/xlink">
    <!-- Generator: Sketch 50.2 (55047) - http://www.bohemiancoding.com/sketch -->
    <title>accountability-tag</title>
    <desc>Created with Sketch.</desc>
    <defs></defs>
    <g id="Page-1" stroke="none" stroke-width="1" fill="none" fill-rule="evenodd">
        <g id="accountability-tag" fill-rule="nonzero">
            <polygon id="Shape" fill="#3b71e8" points="8.12 59.96 0.65 68.99 8.12 78.02 8.12 137.06 141.16 137.06 141.16 0.93 8.12 0.93"></polygon>
            <polygon id="Rectangle-path" fill="#3b71e8" points="132.51 0.93 780.79 0.93 780.79 137.06 132.51 137.06"></polygon>
            <path d="M81.25,88 C78.1,94.41 71.69,103 62.62,103 C55.97,103 55.84,96.71 57.54,90.78 C57.78,89.69 58.27,88 58.63,86.78 L58.39,86.78 C53.31,94.28 44.47,102.99 33.95,102.99 C26.95,102.99 24.03,97.67 24.03,90.53 C24.03,77.22 32.38,60.04 44.12,52.29 C48.1314179,49.488741 52.8974513,47.9686309 57.79,47.93 C62.99,47.93 66.79,49.99 68.08,53.5 L69.41,49.39 L79.21,49.39 C74.97,61.73 68.68,82.79 66.5,92.71 C66.02,95.01 66.14,97.19 67.83,97.19 C71.1,97.19 75.83,91.74 78.83,85.57 L81.25,88 Z M39.38,97 C44.95,97 51.24,92 57.29,81.88 C60.29,76.8 65.52,64.21 65.52,59.49 C65.52,54.05 62.37,51.87 58.87,51.87 C54.87,51.87 51.13,53.44 47.01,58.28 C40.01,66.63 34.79,79.94 34.79,89.98 C34.78,93.52 36.11,97 39.38,97 Z" id="Shape" fill="#FFFFFF"></path>
            <path d="M132.19,88.56 C128.07,95.7 119,102.96 107.5,102.96 C96.37,102.96 90.68,97.03 90.68,85.41 C90.68,73.79 96.61,60.85 106.77,53.47 C111.37,50.2 116.45,47.9 122.86,47.9 C132.18,47.9 136.53,52.9 136.53,58.79 C136.53,63.79 133.26,66.29 130.24,66.29 C128.934609,66.4299051 127.650442,65.8806304 126.85,64.84 C126.127198,63.8577003 125.989622,62.5621949 126.49,61.45 C127.158656,59.9990174 127.568169,58.442191 127.7,56.85 C127.7,53.7 126.13,51.41 121.77,51.41 C116.69,51.41 111.6,55.16 107.13,63.63 C103.549248,70.4659196 101.64037,78.0534513 101.56,85.77 C101.56,93.51 105.07,98.11 111.24,98.11 C119.47,98.11 125.88,92.3 130.12,82.74 L131.81,82.74 L132.19,88.56 Z" id="Shape" fill="#FFFFFF"></path>
            <path d="M186.39,88.56 C182.28,95.7 173.2,102.96 161.71,102.96 C150.58,102.96 144.89,97.03 144.89,85.41 C144.89,73.79 150.82,60.85 160.98,53.47 C165.58,50.2 170.66,47.9 177.07,47.9 C186.39,47.9 190.74,52.9 190.74,58.79 C190.74,63.79 187.47,66.29 184.45,66.29 C183.144609,66.4299051 181.860442,65.8806304 181.06,64.84 C180.337198,63.8577003 180.199622,62.5621949 180.7,61.45 C181.369046,59.9991573 181.778577,58.442261 181.91,56.85 C181.91,53.7 180.34,51.41 175.98,51.41 C170.9,51.41 165.82,55.16 161.34,63.63 C157.75889,70.465783 155.84999,78.0534023 155.77,85.77 C155.77,93.51 159.28,98.11 165.45,98.11 C173.68,98.11 180.09,92.3 184.33,82.74 L186,82.74 L186.39,88.56 Z" id="Shape" fill="#FFFFFF"></path>
            <path d="M248.34,66.06 C248.46,77.68 242.41,91.47 232.85,98.13 C228.071421,101.462929 222.342958,103.160771 216.52,102.97 C208.52,102.97 198.85,99.82 198.85,85.42 C198.85,73.56 205.26,59.65 215.18,52.87 C219.737391,49.6218219 225.193532,47.8741791 230.79,47.87 C242.17,47.91 248.34,54.32 248.34,66.06 Z M218.57,58.8 C213.37,65.94 209.13,79.61 209.13,88.45 C209.13,96.68 213.13,99.45 217.36,99.45 C220.99,99.45 224.36,97.88 227.52,94.13 C233.52,86.75 238.29,71.38 238.29,61.82 C238.29,55.77 235.99,51.41 230.55,51.41 C226.2,51.42 222.33,53.59 218.58,58.8 L218.57,58.8 Z" id="Shape" fill="#FFFFFF"></path>
            <path d="M315.74,88.2 C311.87,95.82 305.09,103.08 296.62,103.08 C289.62,103.08 290.09,96.79 292.02,90.37 C292.38,89.16 292.75,87.95 293.23,86.14 C286.57,96.06 277.5,102.96 268.23,102.96 C258.67,102.96 257.94,96.91 260.73,87.71 C263.88,77.3 269.93,59.39 270.89,55.89 C271.25,54.56 271.13,54.08 269.44,54.08 L262.44,54.2 L264.01,50.93 C270.06,50.32 278.65,49.48 284.34,47.93 C281.34,52.93 272.72,79.03 269.94,90.52 C269.09,94.39 270.06,97.18 273.09,97.18 C282.29,97.18 292.57,83.87 297.29,71.77 C299.59,65.48 301.65,58.94 302.49,55.92 C302.73,54.83 302.61,54.11 300.92,54.23 L294.02,54.35 L295.47,50.96 C301.64,50.35 309.63,49.51 315.47,47.96 C310.87,59.21 303.47,81.84 300.83,93.46 C300.22,95.76 300.35,97.46 301.83,97.46 C305.1,97.46 310.42,92.01 313.57,85.6 L315.74,88.2 Z" id="Shape" fill="#FFFFFF"></path>
            <path d="M381.68,88.08 C376.68,97.88 368.97,103.08 361.96,103.08 C354.95,103.08 354.96,96.42 357.96,88.32 C361.11,79.49 365.22,68.6 367.96,60.73 C369.29,57.1 368.81,53.59 365.06,53.59 C354.41,53.59 343.16,72.22 338.56,84.81 C336.87,89.41 335.05,93.89 332.75,101.51 C329,101.63 325.25,102.11 322.22,102.51 C327.79,87.51 334.56,64.76 336.22,56.17 C336.46,54.6 336.22,54.11 335.13,53.99 L327.63,54.11 L328.84,50.84 C335.363064,50.4163193 341.839098,49.4462523 348.2,47.94 C346.26,54.47 344.2,62.34 342.27,68.75 C349.05,58.59 358.27,47.94 370.34,47.94 C372.510606,47.8261464 374.646944,48.5168956 376.34,49.88 C379.73,52.88 378.52,59.68 376.82,64.16 C373.67,72.99 369.2,84.49 366.41,93.44 C365.68,95.62 366.05,97.07 367.41,97.07 C370.8,97.07 376.12,91.75 379.27,85.57 L381.68,88.08 Z" id="Shape" fill="#FFFFFF"></path>
            <path d="M420.52,88.68 C415.8,98.12 406.85,102.96 399.83,102.96 C390.39,102.96 390.83,96.67 392.83,90.01 C396.22,78.88 401.18,62.66 403.6,54.31 L395.13,53.46 L396.7,49.95 L404.93,49.95 C406.87,44.26 408.32,39.06 409.41,35.31 C413.365949,34.8335786 417.260749,33.941998 421.03,32.65 C419.94,35.19 417.16,43.42 415.1,49.95 L428.29,49.95 L426.48,53.46 L413.77,54.31 C411.47,61.21 404.33,84.8 402.27,93.52 C401.67,96.18 401.91,98 404.57,98 C410.02,98 416.19,90.74 418.73,84.69 L420.52,88.68 Z" id="Shape" fill="#FFFFFF"></path>
            <path d="M487.43,88 C484.28,94.41 477.87,103 468.8,103 C462.14,103 462.02,96.71 463.72,90.78 C463.96,89.69 464.45,88 464.81,86.78 L464.57,86.78 C459.49,94.28 450.65,102.99 440.13,102.99 C433.13,102.99 430.21,97.67 430.21,90.53 C430.21,77.22 438.56,60.04 450.3,52.29 C454.311418,49.488741 459.077451,47.9686309 463.97,47.93 C469.17,47.93 472.97,49.99 474.26,53.5 L475.59,49.39 L485.39,49.39 C481.15,61.73 474.86,82.79 472.68,92.71 C472.2,95.01 472.32,97.19 474.01,97.19 C477.28,97.19 482.01,91.74 485.01,85.57 L487.43,88 Z M445.57,97 C451.14,97 457.43,92 463.48,81.88 C466.48,76.8 471.71,64.21 471.71,59.49 C471.71,54.05 468.56,51.87 465.06,51.87 C461.06,51.87 457.32,53.44 453.2,58.28 C446.2,66.63 440.98,79.94 440.98,89.98 C441,93.52 442.3,97 445.57,97 Z" id="Shape" fill="#FFFFFF"></path>
            <path d="M506.91,21.41 C513.807255,21.2184492 520.681734,20.5299988 527.48,19.35 C523.85,28.91 516.48,54.08 513.81,62.91 C519.86,55.53 528.09,47.91 537.89,47.91 C545.89,47.91 548.78,53.72 548.78,61.22 C548.66,74.77 540.31,90.22 529.9,97.16 C524.42224,100.75373 518.058164,102.764349 511.51,102.97 C506.51,102.97 502.07,101.76 499.51,99.97 C495.76,97.43 495.28,94.28 496.85,88.97 C499.27,80.62 502.42,69.97 505.68,58.84 C510.88,40.84 513.91,30.04 514.51,26.53 C514.75,25.2 514.51,24.84 513.3,24.71 L505.68,24.59 L506.91,21.41 Z M523.85,94.62 C530.26,88.81 537.77,73.57 537.85,60.74 C537.97,55.9 536.16,53.24 533.01,53.24 C527.08,53.24 519.82,60.14 515.1,68.61 C510.5,76.48 506.51,87.37 506.51,92.69 C506.51,97.17 509.29,99.34 513.51,99.34 C516.83,99.33 520.58,97.52 523.85,94.61 L523.85,94.62 Z" id="Shape" fill="#FFFFFF"></path>
            <path d="M563.66,50.81 C569.83,50.21 578.42,49.48 583.87,47.91 L584.23,48.27 C580.6,56.74 572.13,83.36 569.59,93.52 C569.11,95.7 568.99,97.27 570.44,97.27 C574.07,97.27 579.76,91.27 582.44,85.53 L584.86,88.07 C579.66,97.75 572.4,102.95 565.14,102.95 C558.14,102.95 558.24,97.26 560.66,89.52 C563.56,80.2 568.66,65.32 571.19,56.12 C571.67,54.55 571.43,54.06 569.98,54.06 C568.53,54.06 565.14,54.06 562.48,54.18 L563.66,50.81 Z M587.74,30.6 C587.5,34.96 584.35,37.6 580.84,37.6 C577.94,37.6 575.64,35.54 575.76,31.79 C575.81365,27.9613277 578.835398,24.8344747 582.66,24.65 C586.17,24.67 587.86,27 587.74,30.6 Z" id="Shape" fill="#FFFFFF"></path>
            <path d="M605,21.41 C613,21.29 621.34,20.41 625.81,19.35 C623.39,25.64 619.52,37.26 613.81,56.62 C608.36,75.25 604.73,87.23 603.52,93.4 C602.913333,95.82 603.276667,97.03 604.61,97.03 C607.76,97.03 613.32,91.83 616.47,85.41 L618.77,87.95 C613.69,97.95 606.06,103.08 599.17,103.08 C591.79,103.08 592.39,96.18 594.45,88.8 C597.23,79.48 600.14,70.65 604.01,57.34 C609.46,38.83 611.27,32.05 612.48,26.97 C612.96,25.28 612.48,24.79 611.03,24.79 L603.77,24.67 L605,21.41 Z" id="Shape" fill="#FFFFFF"></path>
            <path d="M631.9,50.81 C638.07,50.21 646.66,49.48 652.11,47.91 L652.47,48.27 C648.84,56.74 640.37,83.36 637.83,93.52 C637.35,95.7 637.23,97.27 638.68,97.27 C642.31,97.27 648,91.27 650.68,85.53 L653.1,88.07 C647.9,97.75 640.64,102.95 633.38,102.95 C626.38,102.95 626.48,97.26 628.9,89.52 C631.8,80.2 636.9,65.32 639.43,56.12 C639.91,54.55 639.67,54.06 638.22,54.06 C636.77,54.06 633.38,54.06 630.72,54.18 L631.9,50.81 Z M656,30.6 C655.76,34.96 652.61,37.6 649.1,37.6 C646.2,37.6 643.9,35.54 644.02,31.79 C644.07365,27.9613277 647.095398,24.8344747 650.92,24.65 C654.41,24.67 656.1,27 656,30.6 Z" id="Shape" fill="#FFFFFF"></path>
            <path d="M691.43,88.68 C686.71,98.12 677.76,102.96 670.74,102.96 C661.3,102.96 661.74,96.67 663.74,90.01 C667.13,78.88 672.09,62.66 674.51,54.31 L666.04,53.46 L667.61,49.95 L675.84,49.95 C677.78,44.26 679.23,39.06 680.32,35.31 C684.275949,34.8335786 688.170749,33.941998 691.94,32.65 C690.85,35.19 688.07,43.42 686.01,49.95 L699.2,49.95 L697.39,53.46 L684.68,54.31 C682.38,61.21 675.24,84.8 673.18,93.52 C672.58,96.18 672.82,98 675.48,98 C680.92,98 687.1,90.74 689.64,84.69 L691.43,88.68 Z" id="Shape" fill="#FFFFFF"></path>
            <path d="M701.23,50.93 C706.92,50.69 715.23,49.72 720.47,47.93 C720.23,57.61 721.68,80.48 722.29,91.13 C726.16,83.75 730.52,75.13 735.48,66.32 C741.41,55.67 747.34,47.93 757.02,47.81 L757.38,50.81 C751.81,52.14 745.16,60.49 739.71,69.08 C732.09,81.08 723.98,95.7 717.71,107.68 C708.51,125.1 702.59,130.68 694.6,130.68 C688.6,130.68 686.01,126.57 686.01,122.81 C685.821774,119.604874 688.256155,116.848888 691.46,116.64 C693.222668,116.645401 694.761409,117.835361 695.21,119.54 C695.94,122.2 697.15,123.41 698.96,123.41 C703.56,123.41 708.04,118.09 714.69,104.53 C713.48,103.2 713.12,100.66 712.87,97.75 C712.39,83.75 710.69,63.26 709.87,56.97 C709.51,54.43 708.42,54.07 700.31,54.31 L701.23,50.93 Z" id="Shape" fill="#FFFFFF"></path>
        </g>
    </g>
</svg>
