<?xml version="1.0" encoding="UTF-8"?>
<svg width="483px" height="321px" viewBox="0 0 483 321" version="1.1" xmlns="http://www.w3.org/2000/svg" xmlns:xlink="http://www.w3.org/1999/xlink">
    <!-- Generator: Sketch 50.2 (55047) - http://www.bohemiancoding.com/sketch -->
    <title>stp-banner</title>
    <desc>Created with Sketch.</desc>
    <defs></defs>
    <g id="Page-1" stroke="none" stroke-width="1" fill="none" fill-rule="evenodd">
        <g id="stp-banner" fill="#FFFFFF" fill-rule="nonzero">
            <path d="M58.93,29.78 C56.1928817,35.6793411 54.0716538,41.8453116 52.6,48.18 L51.22,48.18 C53.86,36.91 49.72,30.81 42.36,30.81 C37.53,30.81 34.77,34.03 34.77,37.71 C34.5784953,40.0898122 35.5693,42.41166 37.42,43.92 C39.72,46.11 45.59,50.48 48.92,53.12 C52.25,55.76 54,58.3 54,63 C54.0606579,67.4089622 52.1679925,71.6189528 48.83,74.5 C44.57,78.5 38.59,80.37 31.92,80.37 C26.1777438,80.2341375 20.5311537,78.8702268 15.36,76.37 C17.7136133,70.316876 19.7169252,64.13332 21.36,57.85 L22.62,57.62 C22.1939709,59.9760706 21.9267024,62.3581003 21.82,64.75 C21.24,73.75 26.07,78.55 33.66,78.55 C38.95,78.55 42.52,75.79 42.52,71.55 C42.5577622,69.6594734 41.7601775,67.848444 40.34,66.6 C38.27,64.53 32.86,60.39 29.18,57.28 C25.7930101,54.7331856 23.8599331,50.6953684 24,46.46 C23.9476868,41.5081625 26.0983788,36.7890972 29.87,33.58 C33.55,30.36 37.92,29.09 43.21,29.09 C49.42,29.09 53.56,31.51 54.94,33.35 L58.05,28.86 L58.93,29.78 Z" id="Shape"></path>
            <path d="M100.1,66.93 C95.39,76.59 87.22,80.39 79.51,80.39 C70.89,80.39 67.78,76.94 70.51,67.74 C73.51,57.96 78.1,42.09 80.86,33.24 L73.15,32.55 L73.96,30.82 L81.55,30.82 C83.28,24.95 84.55,20.47 85.55,16.67 C91.1324782,16.2524954 96.6504003,15.2092894 102,13.56 C101.08,15.86 98.21,24.83 96.25,30.81 L107.41,30.81 L106.15,32.54 L95.57,33.23 C93.15,40.71 86.02,64.28 83.95,73.23 C83.37,75.53 84.3,76.56 86.48,76.56 C91.66,76.56 96.95,70 98.79,64.02 L100.1,66.93 Z" id="Shape"></path>
            <path d="M155.76,65.78 C150.088004,74.7527478 140.264238,80.2496923 129.65,80.39 C119.41,80.39 113.65,74.98 113.65,64.17 C113.65,54.74 118.36,42.17 128.48,34.61 C133.288894,30.9995482 139.146683,29.0609996 145.16,29.09 C154.94,29.09 159.16,33.92 159.16,40.71 C159.16,46.23 154.79,49.11 150.88,50.49 C145.82,52.91 134.32,55.21 130.18,55.67 C129.462243,58.9941755 129.067077,62.3798797 129,65.78 C129,72.11 130.84,76.48 136.71,76.48 C144.19,76.48 150.97,70.84 154.65,61.3 L155.34,61.3 L155.76,65.78 Z M144,30.93 C141.81,30.93 136.06,33.46 130.66,53.59 C134.092845,53.1374516 137.453548,52.2468653 140.66,50.94 C145.26,48.75 147.21,42.08 147.21,36.33 C147.21,33.23 146.29,30.92 144.21,30.92 L144,30.92 L144,30.93 Z" id="Shape"></path>
            <path d="M226.6,66.35 C223.84,72.45 217.52,80.35 207.51,80.35 C199.11,80.35 199.92,73.35 201.3,68.62 C201.513313,67.6853668 201.780425,66.7638326 202.1,65.86 C201.98,65.97 201.87,65.86 201.87,65.97 C198.19,71.61 190.6,80.35 179.87,80.35 C172.62,80.35 170.09,75.63 170.09,68.62 C170.09,56.31 178.03,40.9 188.15,33.89 C193.21,30.44 197.58,29.06 202.3,29.06 C208.3,29.06 210.3,31.59 211.38,34.35 L212.64,30.44 L226.79,30.44 C223.15,40.82 216,63.59 214.64,71 C214.18,73.42 214.3,75.14 215.64,75.14 C218.64,75.14 222.54,70.54 225.42,65.25 L226.6,66.35 Z M185.31,69.45 C185.31,71.87 185.89,74.74 188.42,74.74 C192.1,74.74 197.42,70.94 203.49,57.37 C205.56,53.11 209.36,42.88 209.36,38.28 C209.36,34.03 207.86,31.72 205.22,31.72 C202.92,31.72 200.62,32.64 197.86,36.09 C190.86,44.6 185.32,59.9 185.32,69.33 L185.32,69.44 L185.31,69.45 Z" id="Shape"></path>
            <path d="M251,2.64 C260.66,2.64 270.9,1.49 275.15,0.34 C272.28,7.01 268.59,19.34 262.5,39.9 C256.86,58.53 254.79,66.7 253.64,72.22 C253.06,74.52 253.41,75.22 254.56,75.22 C257.2,75.22 262.5,71.31 265.49,65.56 L266.49,66.94 C261.2,76.26 253.61,80.4 246.13,80.4 C236.47,80.4 237.62,73.96 239.34,68.55 C241.87,59.92 245.09,50.38 248.66,38.19 C254.66,18.29 256.14,13.12 257.66,6.33 C257.89,4.72 257.66,4.6 256.05,4.49 L250.76,4.26 L251,2.64 Z" id="Shape"></path>
            <path d="M52,137.59 L51.77,139.43 L39,140.24 C39,144.38 38.77,151.86 38.77,160.24 C38.77,169.09 38.77,176.34 39.23,180.48 C39.46,182.9 40.73,183.93 42.68,183.93 C47.97,183.93 51.08,177.6 51.68,173.35 L52.26,173.35 L53.52,176.35 C51.33,182.91 44.78,187.35 35.92,187.35 C30.97,187.35 26.92,185.97 24.76,183.44 C23.38,181.71 22.76,179.76 22.69,176.44 C22.46,167.82 23.03,150.33 23.03,140.1 L16.36,139.41 L16.93,137.57 L23.14,137.57 C23.14,134.12 23.26,128.48 23.26,124.57 C30.16,123.07 36.49,120.77 39.01,119.05 L39.7,119.28 C39.47,122.62 39.01,132.28 39.01,137.57 L52.01,137.57 L52,137.59 Z" id="Shape"></path>
            <path d="M63,108.83 C69.33,108.72 82.44,107.68 85.31,107.1 C85.08,112.05 84.85,120.9 84.85,128.72 L84.85,143.56 C88.64,140.34 94.74,135.97 102.45,135.97 C111.08,135.97 114.07,140.34 114.99,142.3 C116.037505,144.445942 116.55205,146.81285 116.49,149.2 C116.49,160.2 116.26,175.42 116.37,181.2 C116.37,184.08 116.83,184.76 122.37,184.88 L122.37,186.38 C119.5,186.38 113.63,185.92 108.57,185.92 C102.94,185.92 97.87,186.38 95.23,186.38 L95.23,184.88 C99.02,184.76 99.94,184.08 100.18,181.88 C100.42,179.68 100.52,175.09 100.52,167.04 C100.52,149.21 100.4,147.6 99.94,145.76 C99.14,143 97.41,140.93 94.07,140.93 C90.5981214,140.889313 87.3977811,142.80256 85.79,145.88 C85.0730557,147.26245 84.7545312,148.816988 84.87,150.37 L84.87,166.37 C84.87,173.62 84.87,178.45 85.21,181.67 C85.33,184.2 86.01,184.67 90.38,184.89 L90.27,186.39 C87.85,186.39 81.76,185.93 77.16,185.93 C68.88,185.93 65.43,186.39 62.44,186.39 L62.44,184.89 C67.27,184.77 68.19,184.09 68.44,181.44 C68.67,177.99 68.9,172.93 68.9,161.2 L68.9,129.31 C68.9,118.15 68.79,114.7 68.56,112.52 C68.44,110.52 67.64,110.22 63.04,110.22 L63.04,108.84 L63,108.83 Z" id="Shape"></path>
            <path d="M162.78,186.35 C159.21,186.35 154.84,185.89 147.78,185.89 C140.31,185.89 137.32,186.35 134.32,186.35 L134.32,184.85 C139.49,184.51 140.19,183.7 140.41,181.4 C140.64,179.33 140.76,175.4 140.76,167.94 L140.76,154.84 C140.76,149.43 140.64,143.84 140.53,142.07 C140.3,140.07 139.53,139.65 134.9,139.88 L134.9,138.27 C142.342419,138.064962 149.760974,137.333132 157.1,136.08 C156.87,138.84 156.76,143.56 156.76,154.48 L156.76,167.82 C156.76,176.1 156.88,178.52 157.1,181.28 C157.32,184.04 158.02,184.39 162.85,184.85 L162.78,186.35 Z M148.52,112.63 C153.23,112.63 155.88,115.63 155.88,120.45 C155.88,124.7 152.55,127.7 148.06,127.7 C146.12989,127.760845 144.262152,127.012431 142.908122,125.635613 C141.554092,124.258794 140.836953,122.378826 140.93,120.45 C140.93,115.85 143.93,112.63 148.41,112.63 L148.53,112.63 L148.52,112.63 Z" id="Shape"></path>
            <path d="M210.27,153.69 C210.15,146.56 205.32,137.82 196.93,137.82 C191.41,137.82 188.53,141.04 188.53,145.07 C188.515297,147.455703 189.862177,149.640987 192,150.7 C195.68,152.77 204.88,155.88 208.56,157.83 C213.74,160.48 215.81,164.62 215.81,169.45 C215.81,182.56 205.81,187.39 194.65,187.39 C189.188782,187.268952 183.784119,186.255578 178.65,184.39 C178.77,181.28 178.77,174.5 178.42,166.91 L179.68,166.57 C180.127143,170.097045 181.179229,173.520552 182.79,176.69 C185.223027,181.894249 190.387125,185.277624 196.13,185.43 C202.69,185.43 204.99,182.21 204.99,177.95 C204.926833,175.523256 203.442056,173.360732 201.2,172.43 C197.63,170.71 192.58,168.43 188.78,166.8 C181.19,163.58 178.89,158.63 178.89,153 C178.89,142 187.52,136 197.75,136 C202.24,136 207.87,137.5 209.83,139.45 L211.55,134.97 L212.55,135.66 C211.754362,141.450622 211.446613,147.297851 211.63,153.14 L210.27,153.69 Z" id="Shape"></path>
            <path d="M29.72,249.3 C31.45,243.66 32.6,239.64 33.06,237.8 C35.82,237.46 44.33,235.73 47.67,234.35 L48.01,234.7 C46.51,239.07 42.72,251.15 40.65,258.28 C45.71,251.61 52.96,243.1 62.96,243.1 C70.78,243.1 73.77,248.74 73.77,256.21 C73.77,269.32 65.49,285.77 53.99,291.63 C50.2510871,293.528063 46.1022214,294.475983 41.91,294.39 C36.96,294.39 33.4,292.66 31.79,290.6 C29.26,298.77 26.73,308.89 25.7,312.91 C25.01,315.67 25.24,316.48 27.7,316.7 L34.25,317.39 L33.63,319 L19.49,319 C13.28,319 6.03,319.23 0.4,319.8 L0.98,318.19 L5.81,317.5 C7.88,317.16 8.92,316.5 9.6,314.39 C15.01,299.9 21.91,277.59 28.46,254.7 C25.4808605,256.597243 22.2715495,258.106123 18.91,259.19 C18.34,258.5 17.91,258.04 17.91,258.04 C23.28,255.51 27.08,252.64 29.72,249.3 Z M55.25,248.15 C50.65,248.15 45.25,255.51 41.1,262.99 C38.1,268.4 34.2,280.13 34.2,285.65 C34.2,289.79 36.27,291.98 39.26,291.98 C41.68,291.98 44.21,291.06 47.43,287.03 C52.72,280.24 58.7,264.26 58.7,254.14 C58.7,251.27 58.01,248.14 55.37,248.14 L55.25,248.14 L55.25,248.15 Z" id="Shape"></path>
            <path d="M98.49,216.64 C108.15,216.64 118.39,215.49 122.64,214.34 C119.77,221.01 116.08,233.34 109.99,253.9 C104.35,272.53 102.28,280.7 101.13,286.22 C100.55,288.52 100.9,289.22 102.05,289.22 C104.69,289.22 109.99,285.31 112.98,279.56 L113.98,280.94 C108.69,290.26 101.1,294.4 93.62,294.4 C83.96,294.4 85.11,287.96 86.83,282.55 C89.36,273.93 92.58,264.38 96.15,252.19 C102.15,232.29 103.63,227.12 105.15,220.33 C105.38,218.72 105.15,218.6 103.54,218.49 L98.25,218.26 L98.49,216.64 Z" id="Shape"></path>
            <path d="M182.91,280.35 C180.15,286.44 173.83,294.35 163.82,294.35 C155.42,294.35 156.23,287.35 157.61,282.62 C157.823528,281.685422 158.090636,280.7639 158.41,279.86 C158.29,279.98 158.18,279.86 158.18,279.98 C154.5,285.62 146.91,294.36 136.18,294.36 C128.93,294.36 126.4,289.65 126.4,282.63 C126.4,270.32 134.34,254.91 144.46,247.9 C149.52,244.45 153.89,243.07 158.61,243.07 C164.61,243.07 166.61,245.6 167.69,248.36 L168.95,244.45 L183.1,244.45 C179.42,254.8 172.29,277.57 170.91,284.93 C170.45,287.35 170.57,289.07 171.91,289.07 C174.91,289.07 178.81,284.47 181.69,279.18 L182.91,280.35 Z M141.62,283.45 C141.62,285.87 142.2,288.74 144.73,288.74 C148.41,288.74 153.73,284.95 159.8,271.37 C161.87,267.11 165.67,256.88 165.67,252.28 C165.67,248.02 164.17,245.72 161.53,245.72 C159.23,245.72 156.93,246.64 154.17,250.09 C147.17,258.6 141.63,273.9 141.63,283.33 L141.63,283.45 L141.62,283.45 Z" id="Shape"></path>
            <path d="M226.6,280.93 C221.89,290.59 213.72,294.39 206.01,294.39 C197.39,294.39 194.28,290.94 197.01,281.74 C200.01,271.96 204.6,256.09 207.36,247.24 L199.65,246.55 L200.46,244.83 L208.05,244.83 C209.78,238.96 211.05,234.48 212.05,230.68 C217.632445,230.262244 223.150339,229.219043 228.5,227.57 C227.58,229.87 224.71,238.84 222.75,244.82 L234,244.82 L232.74,246.54 L222.16,247.23 C219.74,254.71 212.61,278.28 210.54,287.23 C209.96,289.53 210.89,290.57 213.07,290.57 C218.25,290.57 223.54,284.01 225.38,278.03 L226.6,280.93 Z" id="Shape"></path>
            <path d="M250.52,244.82 C254.09,233.09 257.52,226.53 263.17,221.13 C267.674066,216.699781 273.762864,214.2549 280.08,214.34 C287.33,214.34 291.47,217.67 291.47,223.43 C291.47,228.37 286.98,230.22 284.22,230.22 C280.66,230.22 279.39,228.61 279.74,227 C280.160393,225.067376 280.427887,223.104638 280.54,221.13 C280.66,218.37 279.85,216.18 277.78,216.18 C275.71,216.18 273.98,218.37 272.37,222.51 C270.3,228.61 268.46,235.39 266.16,244.82 L276.05,244.82 L275.25,246.54 L265.59,247.23 C259.5,271.23 254.32,288.52 251.1,295.76 C246.852488,304.939804 239.819172,312.546983 231,317.5 C227.686448,319.52127 223.881381,320.593607 220,320.6 C216.32,320.6 212,317.72 212,314.04 C212,311.62 214.42,308.29 216.94,307.14 C219.01,306.22 220.39,306.45 221.43,308.29 C223.96,312.54 226.26,315.54 229.25,315.54 C231.25,315.54 232.36,314.27 233.51,310.71 C236.96,301.39 243.86,271.84 249.96,247.23 L241.96,246.54 L242.76,244.82 L250.58,244.82 L250.52,244.82 Z" id="Shape"></path>
            <path d="M310.67,243.09 C322.86,243.09 329.53,248.5 329.53,260.57 C329.53,271.04 323.66,284.26 314.53,290.01 C309.484253,292.988706 303.708102,294.502002 297.85,294.38 C288.19,294.38 278.99,291.62 278.99,277.47 C278.99,267.12 284.63,254.7 293.37,248.47 C298.379713,244.924082 304.37241,243.032571 310.51,243.06 L310.63,243.06 L310.67,243.09 Z M311.13,244.82 C308.6,244.82 306.41,246.2 303.77,249.99 C298.02,258.16 292.84,276.67 292.84,285.64 C292.84,290.81 294.84,292.77 297.56,292.77 C299.98,292.77 301.81,291.62 304.23,288.52 C309.98,280.7 315.73,261.26 315.73,251.37 C315.73,247.92 314.81,244.81 311.24,244.81 L311.12,244.81 L311.13,244.82 Z" id="Shape"></path>
            <path d="M346.78,246.19 C353.68,245.96 362.54,245.19 368.78,243.08 C368.55,245.96 366.36,255.27 364.64,262.29 L364.98,262.29 C371.54,247.22 376.71,243.08 382.58,243.08 C386.95,243.08 388.79,247.08 388.79,249.64 C388.79,256.54 384.19,260.11 380.51,260.11 C378.852048,260.224177 377.313998,259.242098 376.72,257.69 C376.03,255.96 375.8,254.93 374.3,254.93 C371.43,254.93 367.74,259.76 364.41,268.04 C361.172401,276.1964 358.443829,284.545764 356.24,293.04 C349.68,292.92 343.93,293.62 340.6,293.84 C344.85,282.22 352.22,258.99 353.02,250.25 C353.25,248.52 352.91,248.06 351.41,247.95 C349.91,247.84 347.5,247.72 345.89,247.72 L346.78,246.19 Z" id="Shape"></path>
            <path d="M482.94,280.35 C478.23,290.01 469.6,294.35 462.35,294.35 C452.69,294.35 454.41,287.22 456.94,280.43 C460.39,271.23 465.22,258.92 467.29,253.43 C468.29,250.67 467.75,248.72 465.57,248.72 C457.86,248.72 447.86,266.32 443.95,277.13 C442.45,281.27 440.38,287.25 438.54,292.89 C433.48,293.01 427.15,293.47 423.36,293.81 C427.73,282.42 435.55,259.31 437.16,252.29 C437.74,249.99 437.28,248.72 435.55,248.72 C429.34,248.72 420.02,260.8 414.27,277.24 C412.66,281.49 410.7,287.48 408.98,292.88 C403.34,293 397.48,293.57 393.8,293.88 C399.89,278.12 405.99,258.8 408.18,250.18 C408.75,247.88 408.29,247.53 406.8,247.42 L401.05,247.3 L401.4,246 C408.53,245.31 416.47,244.62 423.48,243.12 C422.48,248.41 420.26,256.58 419.11,260.6 C424.63,252.55 433.26,243.12 444.18,243.12 C451.31,243.12 452,249.33 451.08,253.36 C450.39,256.24 449.82,257.84 448.9,260.83 C455.23,251.75 463.62,243.12 474.09,243.12 C477.54,243.12 479.61,244.27 480.76,245.54 C483.18,248.42 481.68,253.82 480.41,257.27 C477.19,266.35 471.21,281.54 469.71,286.6 C469.25,288.32 469.59,289.13 470.71,289.13 C473.71,289.13 478.76,284.76 481.87,279.01 L482.94,280.35 Z" id="Shape"></path>
            <path d="M250.37,144.33 L250.37,110.5 L326.61,110.5 L326.61,188.51 L250.37,188.51 L250.37,154.68 L246.09,149.51 L250.37,144.33 Z M306.51,128.09 L306.51,155.46 L308.86,155.46 L308.86,128.09 L306.51,128.09 Z M299.01,128.09 L299.01,172.67 L301.36,172.67 L301.36,128.09 L299.01,128.09 Z M291.5,128.09 L291.5,172.67 L293.85,172.67 L293.85,128.09 L291.5,128.09 Z M284,128.09 L284,172.67 L286.35,172.67 L286.35,128.09 L284,128.09 Z M276.5,128.09 L276.5,155.46 L278.85,155.46 L278.85,128.09 L276.5,128.09 Z M269,128.09 L269,172.67 L271.35,172.67 L271.35,128.09 L269,128.09 Z" id="Combined-Shape"></path>
        </g>
    </g>
</svg>