<?xml version="1.0" encoding="UTF-8"?>
<svg width="548px" height="137px" viewBox="0 0 548 137" version="1.1" xmlns="http://www.w3.org/2000/svg" xmlns:xlink="http://www.w3.org/1999/xlink">
    <!-- Generator: Sketch 50.2 (55047) - http://www.bohemiancoding.com/sketch -->
    <title>education-tag</title>
    <desc>Created with Sketch.</desc>
    <defs></defs>
    <g id="Page-1" stroke="none" stroke-width="1" fill="none" fill-rule="evenodd">
        <g id="education-tag" fill-rule="nonzero">
            <polygon id="Shape" fill="#3b71e8" points="8.12 59.17 0.65 68.21 8.12 77.24 8.12 136.27 141.16 136.27 141.16 0.14 8.12 0.14"></polygon>
            <polygon id="Rectangle-path" fill="#3b71e8" points="132.51 0.14 547.8 0.14 547.8 136.27 132.51 136.27"></polygon>
            <path d="M66.12,84.48 C60.3922133,93.2943917 50.6314263,98.6553163 40.12,98.76 C30.12,98.76 24.51,92.59 24.51,81.94 C24.51,70.2 30.2,57.01 40.36,49.15 C44.9040463,45.6468095 50.4724336,43.7321274 56.21,43.7 C66.37,43.7 69.76,49.75 69.76,56.04 C69.76,61.73 65.4,64.87 61.17,66.81 C54.88,69.71 43.38,72.26 36.36,73.1 C35.8135867,75.8907128 35.5290176,78.7263608 35.51,81.57 C35.51,88.47 38.05,93.67 44.83,93.67 C53.18,93.67 59.83,88.22 63.95,78.42 L65.76,78.42 L66.12,84.48 Z M37.12,69.23 C42.57,68.62 50.19,66.69 53.7,64.99 C57.9794417,63.2065218 60.7212361,58.9746216 60.6,54.34 C60.6,49.86 58.54,47.34 54.91,47.34 C49.91,47.33 42,52.05 37.08,69.23 L37.12,69.23 Z" id="Shape" fill="#FFFFFF"></path>
            <path d="M136.66,83.88 C132.3,92.59 125.66,99.01 117.66,99.01 C111.25,99.01 111.25,92.11 113.06,85.7 C113.42,84.49 113.67,83.4 114.06,82.19 C108.86,90.05 100.39,98.77 89.13,98.77 C81.51,98.77 77.88,93.08 77.88,85.1 C77.88,72.27 85.14,57.1 96.51,49.04 C100.943521,45.6011567 106.38919,43.7238246 112,43.7 C117.32,43.7 121.32,45.27 123.25,48.54 C127.97,33.54 129.9,26.28 130.63,22.89 C130.99,21.2 130.75,20.71 129.3,20.71 C127.61,20.59 124.82,20.47 121.56,20.47 L122.77,17.2 C129.42,17.08 139.83,16.11 143.82,15.14 C140.92,22.4 134.38,42.73 127.73,66.57 C124.73,77.34 123.01,83.87 122.04,88.35 C121.56,90.53 121.31,92.95 123.04,92.95 C126.31,92.95 131.63,87.14 134.29,81.33 L136.66,83.88 Z M94.19,93 C99.51,93 105.32,88.28 111.13,79.33 C115,73.52 120.45,61.06 120.45,55.13 C120.45,51.38 118.39,47.51 113.31,47.51 C109.07,47.51 105.31,49.2 101.31,53.44 C94.53,60.58 88.85,73.65 88.85,85.14 C88.87,89.56 90.56,93 94.19,93 Z" id="Shape" fill="#FFFFFF"></path>
            <path d="M202.24,84 C198.37,91.62 191.59,98.88 183.12,98.88 C176.12,98.88 176.58,92.59 178.52,86.17 C178.88,84.96 179.25,83.75 179.73,81.94 C173.08,91.86 164,98.76 154.73,98.76 C145.17,98.76 144.44,92.71 147.23,83.51 C150.38,73.1 156.43,55.19 157.39,51.69 C157.75,50.36 157.63,49.88 155.94,49.88 L148.94,50 L150.51,46.73 C156.51,46.12 165.15,45.28 170.84,43.73 C167.84,48.73 159.22,74.83 156.44,86.32 C155.59,90.19 156.56,92.98 159.59,92.98 C168.79,92.98 179.07,79.67 183.79,67.57 C186.09,61.28 188.15,54.74 188.99,51.72 C189.23,50.63 189.11,49.91 187.42,50.03 L180.52,50.15 L181.97,46.76 C188.14,46.15 196.13,45.31 201.97,43.76 C197.37,55.01 189.97,77.64 187.33,89.26 C186.73,91.56 186.85,93.26 188.33,93.26 C191.6,93.26 196.92,87.81 200.07,81.4 L202.24,84 Z" id="Shape" fill="#FFFFFF"></path>
            <path d="M253.3,84.36 C249.19,91.5 240.11,98.76 228.62,98.76 C217.49,98.76 211.8,92.83 211.8,81.21 C211.8,69.59 217.73,56.65 227.89,49.27 C232.49,46 237.57,43.7 243.98,43.7 C253.3,43.7 257.65,48.7 257.65,54.59 C257.65,59.59 254.38,62.09 251.36,62.09 C250.054609,62.2299051 248.770442,61.6806304 247.97,60.64 C247.247198,59.6577003 247.109622,58.3621949 247.61,57.25 C248.279046,55.7991573 248.688577,54.242261 248.82,52.65 C248.82,49.5 247.25,47.21 242.89,47.21 C237.81,47.21 232.73,50.96 228.25,59.43 C224.66889,66.265783 222.75999,73.8534023 222.68,81.57 C222.68,89.31 226.19,93.91 232.36,93.91 C240.59,93.91 247,88.1 251.24,78.54 L252.93,78.54 L253.3,84.36 Z" id="Shape" fill="#FFFFFF"></path>
            <path d="M322,83.75 C318.85,90.16 312.44,98.75 303.37,98.75 C296.71,98.75 296.59,92.46 298.29,86.53 C298.53,85.44 299.02,83.75 299.38,82.53 L299.14,82.53 C294.06,90.03 285.22,98.74 274.7,98.74 C267.7,98.74 264.78,93.42 264.78,86.28 C264.78,72.97 273.13,55.79 284.87,48.04 C288.881418,45.238741 293.647451,43.7186309 298.54,43.68 C303.74,43.68 307.54,45.74 308.83,49.25 L310.16,45.14 L319.96,45.14 C315.72,57.48 309.43,78.54 307.25,88.46 C306.77,90.76 306.89,92.94 308.58,92.94 C311.85,92.94 316.58,87.49 319.58,81.32 L322,83.75 Z M280.13,92.83 C285.7,92.83 291.99,87.83 298.04,77.7 C301.04,72.62 306.27,60.03 306.27,55.31 C306.27,49.87 303.12,47.69 299.61,47.69 C295.61,47.69 291.87,49.26 287.75,54.1 C280.75,62.45 275.53,75.76 275.53,85.8 C275.57,89.32 276.9,92.83 280.17,92.83 L280.13,92.83 Z" id="Shape" fill="#FFFFFF"></path>
            <path d="M359.9,84.48 C355.18,93.92 346.23,98.76 339.21,98.76 C329.77,98.76 330.21,92.47 332.21,85.81 C335.6,74.68 340.56,58.46 342.98,50.11 L334.51,49.26 L336.08,45.75 L344.31,45.75 C346.25,40.06 347.7,34.86 348.79,31.11 C352.745937,30.6335056 356.640729,29.7419267 360.41,28.45 C359.32,30.99 356.54,39.22 354.48,45.75 L367.67,45.75 L365.85,49.26 L353.14,50.11 C350.84,57.01 343.7,80.6 341.64,89.32 C341.03,91.98 341.28,93.8 343.94,93.8 C349.39,93.8 355.56,86.54 358.1,80.49 L359.9,84.48 Z" id="Shape" fill="#FFFFFF"></path>
            <path d="M374.54,46.61 C380.71,46.01 389.3,45.28 394.75,43.71 L395.11,44.07 C391.48,52.54 383.01,79.16 380.47,89.32 C379.99,91.5 379.86,93.07 381.32,93.07 C384.95,93.07 390.64,87.07 393.32,81.33 L395.74,83.87 C390.54,93.55 383.28,98.75 376.02,98.75 C369.02,98.75 369.12,93.06 371.54,85.32 C374.44,76 379.54,61.12 382.07,51.92 C382.55,50.35 382.31,49.86 380.86,49.86 C379.41,49.86 376.02,49.86 373.36,49.98 L374.54,46.61 Z M398.62,26.4 C398.38,30.76 395.23,33.4 391.72,33.4 C388.82,33.4 386.52,31.34 386.64,27.59 C386.69365,23.7613277 389.715398,20.6344747 393.54,20.45 C397,20.47 398.74,22.77 398.62,26.4 Z" id="Shape" fill="#FFFFFF"></path>
            <path d="M454.28,61.85 C454.4,73.47 448.35,87.26 438.79,93.92 C434.008654,97.2550039 428.276344,98.9529464 422.45,98.76 C414.45,98.76 404.78,95.61 404.78,81.21 C404.78,69.35 411.19,55.44 421.12,48.66 C425.67709,45.4112209 431.133428,43.663515 436.73,43.66 C448.11,43.7 454.28,50.12 454.28,61.85 Z M424.51,54.59 C419.31,61.73 415.07,75.4 415.07,84.24 C415.07,92.47 419.07,95.24 423.3,95.24 C426.93,95.24 430.3,93.67 433.46,89.92 C439.46,82.54 444.23,67.17 444.23,57.61 C444.23,51.56 441.93,47.2 436.49,47.2 C432.14,47.21 428.27,49.39 424.52,54.59 L424.51,54.59 Z" id="Shape" fill="#FFFFFF"></path>
            <path d="M521.2,83.88 C516.2,93.68 508.49,98.88 501.48,98.88 C494.47,98.88 494.48,92.22 497.48,84.12 C500.63,75.29 504.74,64.4 507.48,56.53 C508.81,52.9 508.33,49.39 504.58,49.39 C493.93,49.39 482.68,68.02 478.08,80.61 C476.39,85.21 474.57,89.69 472.27,97.31 C468.52,97.43 464.77,97.91 461.74,98.31 C467.31,83.31 474.08,60.56 475.74,51.97 C475.98,50.4 475.74,49.91 474.65,49.79 L467.15,49.91 L468.36,46.64 C474.883059,46.2162726 481.359089,45.2462061 487.72,43.74 C485.78,50.27 483.72,58.14 481.79,64.55 C488.57,54.39 497.79,43.74 509.86,43.74 C512.030482,43.627094 514.16649,44.3177365 515.86,45.68 C519.25,48.68 518.04,55.48 516.34,59.96 C513.19,68.79 508.72,80.29 505.93,89.24 C505.2,91.42 505.57,92.87 506.93,92.87 C510.32,92.87 515.64,87.55 518.79,81.37 L521.2,83.88 Z" id="Shape" fill="#FFFFFF"></path>
        </g>
    </g>
</svg>