<?xml version="1.0" encoding="UTF-8"?>
<svg width="513px" height="137px" viewBox="0 0 513 137" version="1.1" xmlns="http://www.w3.org/2000/svg" xmlns:xlink="http://www.w3.org/1999/xlink">
    <!-- Generator: Sketch 50.2 (55047) - http://www.bohemiancoding.com/sketch -->
    <title>inclusion-tag</title>
    <desc>Created with Sketch.</desc>
    <defs></defs>
    <g id="Page-1" stroke="none" stroke-width="1" fill="none" fill-rule="evenodd">
        <g id="inclusion-tag" fill-rule="nonzero">
            <polygon id="Shape" fill="#3b71e8" points="7.57 59.28 0.1 68.31 7.57 77.34 7.57 136.38 140.61 136.38 140.61 0.25 7.57 0.25"></polygon>
            <polygon id="Rectangle-path" fill="#3b71e8" points="131.96 0.25 512.93 0.25 512.93 136.38 131.96 136.38"></polygon>
            <path d="M29.4,50.13 C35.57,49.53 44.16,48.8 49.61,47.23 L49.97,47.59 C46.34,56.06 37.87,82.68 35.33,92.84 C34.85,95.02 34.72,96.59 36.18,96.59 C39.81,96.59 45.5,90.59 48.18,84.85 L50.6,87.39 C45.4,97.07 38.14,102.27 30.88,102.27 C23.88,102.27 23.98,96.58 26.4,88.84 C29.3,79.52 34.4,64.64 36.93,55.44 C37.41,53.87 37.17,53.38 35.72,53.38 C34.27,53.38 30.88,53.38 28.22,53.5 L29.4,50.13 Z M53.48,29.92 C53.24,34.28 50.09,36.92 46.58,36.92 C43.68,36.92 41.38,34.86 41.5,31.11 C41.5536495,27.2813277 44.5753982,24.1544747 48.4,23.97 C51.9,24 53.6,26.29 53.48,29.92 Z" id="Shape" fill="#FFFFFF"></path>
            <path d="M116.76,87.4 C111.76,97.2 104.05,102.4 97.04,102.4 C90.03,102.4 90.04,95.74 93.04,87.64 C96.19,78.81 100.3,67.92 103.04,60.05 C104.37,56.42 103.89,52.91 100.14,52.91 C89.49,52.91 78.24,71.54 73.64,84.13 C71.95,88.73 70.13,93.21 67.83,100.83 C64.08,100.95 60.33,101.43 57.3,101.83 C62.87,86.83 69.64,64.08 71.3,55.49 C71.54,53.92 71.3,53.43 70.21,53.31 L62.71,53.43 L63.92,50.16 C70.443074,49.7364129 76.9191159,48.7663446 83.28,47.26 C81.34,53.79 79.28,61.66 77.35,68.07 C84.13,57.91 93.35,47.26 105.42,47.26 C107.607397,47.134577 109.763431,47.8259335 111.47,49.2 C114.86,52.2 113.65,59 111.95,63.48 C108.8,72.31 104.33,83.81 101.54,92.76 C100.81,94.94 101.18,96.39 102.54,96.39 C105.93,96.39 111.25,91.07 114.4,84.89 L116.76,87.4 Z" id="Shape" fill="#FFFFFF"></path>
            <path d="M168.66,87.88 C164.55,95.02 155.47,102.28 143.98,102.28 C132.85,102.28 127.16,96.35 127.16,84.73 C127.16,73.11 133.09,60.17 143.25,52.79 C147.85,49.52 152.93,47.22 159.34,47.22 C168.66,47.22 173.01,52.22 173.01,58.11 C173.01,63.11 169.74,65.61 166.72,65.61 C165.414609,65.7499051 164.130442,65.2006304 163.33,64.16 C162.607198,63.1777003 162.469622,61.8821949 162.97,60.77 C163.638656,59.3190174 164.048169,57.762191 164.18,56.17 C164.18,53.02 162.61,50.73 158.25,50.73 C153.17,50.73 148.08,54.48 143.61,62.95 C140.013462,69.7853349 138.090762,77.3767461 138,85.1 C138,92.84 141.51,97.44 147.68,97.44 C155.91,97.44 162.32,91.63 166.56,82.07 L168.25,82.07 L168.66,87.88 Z" id="Shape" fill="#FFFFFF"></path>
            <path d="M191.41,20.73 C199.41,20.61 207.75,19.73 212.22,18.67 C209.8,24.96 205.93,36.58 200.22,55.94 C194.78,74.57 191.14,86.55 189.93,92.72 C189.323333,95.14 189.686667,96.35 191.02,96.35 C194.17,96.35 199.73,91.15 202.88,84.73 L205.18,87.27 C200.1,97.27 192.47,102.4 185.58,102.4 C178.2,102.4 178.8,95.5 180.86,88.12 C183.64,78.8 186.55,69.97 190.42,56.66 C195.87,38.15 197.68,31.37 198.89,26.29 C199.37,24.6 198.89,24.11 197.44,24.11 L190.18,23.99 L191.41,20.73 Z" id="Shape" fill="#FFFFFF"></path>
            <path d="M270.67,87.52 C266.8,95.14 260.02,102.4 251.55,102.4 C244.55,102.4 245.02,96.11 246.95,89.69 C247.31,88.48 247.68,87.27 248.16,85.46 C241.51,95.38 232.43,102.28 223.16,102.28 C213.6,102.28 212.87,96.23 215.66,87.03 C218.81,76.62 224.86,58.71 225.82,55.21 C226.18,53.88 226.06,53.4 224.37,53.4 L217.37,53.52 L218.94,50.25 C224.94,49.64 233.58,48.8 239.27,47.25 C236.27,52.25 227.65,78.35 224.87,89.84 C224.02,93.71 224.99,96.5 228.02,96.5 C237.22,96.5 247.5,83.19 252.22,71.09 C254.52,64.8 256.58,58.26 257.42,55.24 C257.66,54.15 257.54,53.43 255.85,53.55 L248.95,53.67 L250.4,50.28 C256.57,49.67 264.56,48.83 270.4,47.28 C265.8,58.53 258.4,81.16 255.76,92.78 C255.15,95.08 255.28,96.78 256.76,96.78 C260.03,96.78 265.35,91.33 268.5,84.92 L270.67,87.52 Z" id="Shape" fill="#FFFFFF"></path>
            <path d="M322.09,48.19 C319.439904,54.3094882 317.256997,60.6208645 315.56,67.07 L312.66,67.19 C314.6,56.9 311.57,50.73 303.95,50.73 C301.631455,50.6289206 299.375432,51.4973282 297.723073,53.1269227 C296.070714,54.7565171 295.171094,57.0002755 295.24,59.32 C295.119905,62.1326535 296.501898,64.797654 298.87,66.32 C301.53,68.5 306.74,72.25 309.87,74.55 C313.62,77.21 315.68,80.12 315.56,85.32 C315.535915,90.0811783 313.355252,94.5748871 309.63,97.54 C306,100.54 300.63,102.26 294.14,102.26 C288.080236,102.235521 282.141372,100.562407 276.96,97.42 C278.29,94.15 280.47,87.13 282.41,80 L285.56,79.52 C284.894688,82.2183814 284.489502,84.9743124 284.35,87.75 C284.23,94.28 288.1,98.64 296.09,98.64 C301.41,98.64 306.25,95.86 306.38,90.17 C306.38,87.02 305.17,85.17 302.75,83.27 C300.33,81.37 296.34,78.19 293.07,75.53 C289.32,72.87 286.54,69.36 286.54,63.91 C286.45553,58.9865436 288.642824,54.2984319 292.47,51.2 C295.86,48.42 300.09,47.2 305.05,47.2 C310.25,47.2 314.73,49.26 316.3,51.44 L319.57,46.84 L322.09,48.19 Z" id="Shape" fill="#FFFFFF"></path>
            <path d="M332.62,50.13 C338.79,49.53 347.38,48.8 352.83,47.23 L353.19,47.59 C349.56,56.06 341.09,82.68 338.55,92.84 C338.07,95.02 337.95,96.59 339.4,96.59 C343.03,96.59 348.72,90.59 351.4,84.85 L353.82,87.39 C348.62,97.07 341.36,102.27 334.1,102.27 C327.1,102.27 327.2,96.58 329.62,88.84 C332.52,79.52 337.62,64.64 340.15,55.44 C340.63,53.87 340.39,53.38 338.94,53.38 C337.49,53.38 334.1,53.38 331.44,53.5 L332.62,50.13 Z M356.7,29.92 C356.46,34.28 353.31,36.92 349.8,36.92 C346.9,36.92 344.6,34.86 344.72,31.11 C344.77365,27.2813277 347.795398,24.1544747 351.62,23.97 C355.12,24 356.82,26.29 356.7,29.92 Z" id="Shape" fill="#FFFFFF"></path>
            <path d="M412.36,65.37 C412.48,76.99 406.43,90.78 396.87,97.44 C392.088654,100.775004 386.356344,102.472946 380.53,102.28 C372.53,102.28 362.86,99.13 362.86,84.73 C362.86,72.87 369.27,58.96 379.19,52.18 C383.747391,48.9318219 389.203532,47.1841791 394.8,47.18 C406.19,47.22 412.36,53.64 412.36,65.37 Z M382.59,58.11 C377.39,65.25 373.15,78.92 373.15,87.76 C373.15,95.99 377.15,98.76 381.38,98.76 C385.01,98.76 388.38,97.19 391.54,93.44 C397.54,86.06 402.31,70.69 402.31,61.13 C402.31,55.08 400.01,50.72 394.57,50.72 C390.21,50.73 386.34,52.91 382.59,58.11 Z" id="Shape" fill="#FFFFFF"></path>
            <path d="M479.27,87.4 C474.27,97.2 466.56,102.4 459.55,102.4 C452.54,102.4 452.55,95.74 455.55,87.64 C458.7,78.81 462.81,67.92 465.55,60.05 C466.88,56.42 466.4,52.91 462.65,52.91 C452,52.91 440.75,71.54 436.15,84.13 C434.46,88.73 432.64,93.21 430.34,100.83 C426.59,100.95 422.84,101.43 419.81,101.83 C425.38,86.83 432.15,64.08 433.81,55.49 C434.05,53.92 433.81,53.43 432.72,53.31 L425.22,53.43 L426.43,50.16 C432.953059,49.7362726 439.429089,48.7662061 445.79,47.26 C443.85,53.79 441.79,61.66 439.86,68.07 C446.64,57.91 455.86,47.26 467.93,47.26 C470.100482,47.147094 472.23649,47.8377365 473.93,49.2 C477.32,52.2 476.11,59 474.41,63.48 C471.26,72.31 466.79,83.81 464,92.76 C463.27,94.94 463.64,96.39 465,96.39 C468.39,96.39 473.71,91.07 476.86,84.89 L479.27,87.4 Z" id="Shape" fill="#FFFFFF"></path>
        </g>
    </g>
</svg>