<?xml version="1.0" encoding="UTF-8" standalone="no"?>
<svg width="119px" height="119px" viewBox="0 0 119 119" version="1.1" xmlns="http://www.w3.org/2000/svg" xmlns:xlink="http://www.w3.org/1999/xlink">
    <!-- Generator: Sketch 43.2 (39069) - http://www.bohemiancoding.com/sketch -->
    <title>support-local-governments</title>
    <desc>Created with Sketch.</desc>
    <defs></defs>
    <g id="Views" stroke="none" stroke-width="1" fill="none" fill-rule="evenodd">
        <g id="About" transform="translate(-997.000000, -1673.000000)">
            <g id="Goals" transform="translate(0.000000, 1534.000000)">
                <g id="Item-2" transform="translate(893.000000, 139.000000)">
                    <g id="support-local-governments" transform="translate(105.000000, 0.000000)">
                        <path d="M24.5,106.748684 C3.8630246,92.028873 -4.89622545,65.6600358 2.83153903,41.5179719 C10.5593035,17.375908 33.002596,0.994862223 58.3513158,0.994862223 C83.7000356,0.994862223 106.143328,17.375908 113.871093,41.5179719 C121.598857,65.6600358 112.839607,92.028873 92.2026316,106.748684" id="Shape" stroke="#3B71E8" stroke-width="2"></path>
                        <path d="M36.1144737,110.888158 L80.5881579,110.888158" id="Shape" stroke="#3B71E8" stroke-width="2"></path>
                        <path d="M36.1144737,117.730263 L80.5881579,117.730263" id="Shape" stroke="#3B71E8" stroke-width="2"></path>
                        <path d="M75.4565789,117.730263 L75.4565789,91.2513158 C87.4302632,85.2302632 94.1697368,72.8973684 94.1697368,59.2815789 C94.1697364,39.504335 78.1371123,23.4717113 58.3598684,23.4717113 C38.5826245,23.4717113 22.5500004,39.504335 22.55,59.2815789 C22.55,72.9144737 29.2723684,85.2302632 41.2460526,91.2513158 L41.2460526,117.730263" id="Shape" stroke="#3B71E8" stroke-width="2"></path>
                        <path d="M53.2197368,110.888158 L53.2197368,88.6513158" id="Shape" stroke="#3B71E8" stroke-width="2"></path>
                        <path d="M63.4828947,110.888158 L63.4828947,88.6513158" id="Shape" stroke="#3B71E8" stroke-width="2"></path>
                        <path d="M56.6407895,16.8092105 L60.0618421,16.8092105" id="Shape" stroke="#3B71E8" stroke-width="2"></path>
                        <path d="M70.325,18.5197368 L75.4565789,18.5197368" id="Shape" stroke="#3B71E8" stroke-width="2"></path>
                        <path d="M82.2986842,23.6513158 L87.4302632,23.6513158" id="Shape" stroke="#3B71E8" stroke-width="2"></path>
                        <path d="M92.5618421,32.2039474 L95.9828947,32.2039474" id="Shape" stroke="#3B71E8" stroke-width="2"></path>
                        <path d="M92.5618421,85.2302632 L95.9828947,85.2302632" id="Shape" stroke="#3B71E8" stroke-width="2"></path>
                        <path d="M97.6934211,47.5986842 L101.114474,47.5986842" id="Shape" stroke="#3B71E8" stroke-width="2"></path>
                        <path d="M97.6934211,71.5460526 L101.114474,71.5460526" id="Shape" stroke="#3B71E8" stroke-width="2"></path>
                        <path d="M99.4039474,59.5723684 L104.535526,59.5723684" id="Shape" stroke="#3B71E8" stroke-width="2"></path>
                        <path d="M46.3776316,18.5197368 L41.2460526,18.5197368" id="Shape" stroke="#3B71E8" stroke-width="2"></path>
                        <path d="M34.4039474,23.6513158 L29.2723684,23.6513158" id="Shape" stroke="#3B71E8" stroke-width="2"></path>
                        <path d="M24.1407895,32.2039474 L20.7197368,32.2039474" id="Shape" stroke="#3B71E8" stroke-width="2"></path>
                        <path d="M24.1407895,85.2302632 L20.7197368,85.2302632" id="Shape" stroke="#3B71E8" stroke-width="2"></path>
                        <path d="M19.0092105,47.5986842 L15.5881579,47.5986842" id="Shape" stroke="#3B71E8" stroke-width="2"></path>
                        <path d="M19.0092105,71.5460526 L15.5881579,71.5460526" id="Shape" stroke="#3B71E8" stroke-width="2"></path>
                        <path d="M17.2986842,59.5723684 L12.1671053,59.5723684" id="Shape" stroke="#3B71E8" stroke-width="2"></path>
                        <path d="M77.1671053,59.2815789 C77.155641,62.1402042 79.2891364,64.5532611 82.1276316,64.8921053 C81.5297514,67.45599 80.5187385,69.9055299 79.1342105,72.1447368 C76.9172383,70.0755337 73.4593704,70.1351223 71.3150095,72.2794832 C69.1706486,74.4238441 69.11106,77.881712 71.1802632,80.0986842 C68.9411951,81.4834838 66.4916094,82.4945156 63.9276316,83.0921053 C63.6123672,80.2503368 61.2105184,78.1002127 58.3513158,78.1002127 C55.4921132,78.1002127 53.0902644,80.2503368 52.775,83.0921053 C50.2110222,82.4945156 47.7614365,81.4834838 45.5223684,80.0986842 C47.7282372,77.9069858 47.7397246,74.3420532 45.5480262,72.1361843 C43.3563278,69.9303155 39.7913952,69.918828 37.5855263,72.1105263 C36.2009984,69.8713194 35.1899854,67.4217794 34.5921053,64.8578947 C37.4338737,64.5426303 39.5839978,62.1407815 39.5839978,59.2815789 C39.5839978,56.4223763 37.4338737,54.0205276 34.5921053,53.7052632 C35.1899854,51.1413784 36.2009984,48.6918385 37.5855263,46.4526316 C39.8024985,48.5218347 43.2603664,48.4622462 45.4047273,46.3178852 C47.5490883,44.1735243 47.6086768,40.7156564 45.5394737,38.4986842 C47.7785418,37.1138846 50.2281274,36.1028528 52.7921053,35.5052632 C53.1073697,38.3470316 55.5092185,40.4971557 58.3684211,40.4971557 C61.2276237,40.4971557 63.6294724,38.3470316 63.9447368,35.5052632 C66.5087147,36.1028528 68.9583003,37.1138846 71.1973684,38.4986842 C69.1281653,40.7156564 69.1877538,44.1735243 71.3321148,46.3178852 C73.4764757,48.4622462 76.9343436,48.5218347 79.1513158,46.4526316 C80.5358437,48.6918385 81.5468567,51.1413784 82.1447368,53.7052632 C79.312432,54.0345943 77.1740233,56.4302 77.1671053,59.2815789 Z M58.3513158,66.8078947 C62.5079852,66.8078947 65.8776316,63.4382484 65.8776316,59.2815789 C65.8776316,55.1249095 62.5079852,51.7552632 58.3513158,51.7552632 C54.1946464,51.7552632 50.825,55.1249095 50.825,59.2815789 C50.825,63.4382484 54.1946464,66.8078947 58.3513158,66.8078947 Z" id="Combined-Shape" fill="#3B71E8"></path>
                    </g>
                </g>
            </g>
        </g>
    </g>
</svg>