<?xml version="1.0" encoding="UTF-8" standalone="no"?>
<svg width="520px" height="175px" viewBox="0 0 520 175" version="1.1" xmlns="http://www.w3.org/2000/svg" xmlns:xlink="http://www.w3.org/1999/xlink">
    <!-- Generator: Sketch 43.2 (39069) - http://www.bohemiancoding.com/sketch -->
    <title>the-cost-of-education-title-card</title>
    <desc>Created with Sketch.</desc>
    <defs></defs>
    <g id="Views" stroke="none" stroke-width="1" fill="none" fill-rule="evenodd">
        <g id="Project" transform="translate(-392.000000, -213.000000)" fill="#FFFFFF">
            <g id="Hero">
                <path d="M448.981,257.152 L448.981,287.5 L439.747,287.5 L439.747,257.152 L428.947,257.152 L428.947,249.268 L459.781,249.268 L459.781,257.152 L448.981,257.152 Z M496.131,287.5 L496.131,271.516 L481.227,271.516 L481.227,287.5 L471.993,287.5 L471.993,249.268 L481.227,249.268 L481.227,263.74 L496.131,263.74 L496.131,249.268 L505.365,249.268 L505.365,287.5 L496.131,287.5 Z M521.249,287.5 L521.249,249.268 L546.953,249.268 L546.953,257.098 L530.159,257.098 L530.159,264.28 L546.035,264.28 L546.035,271.678 L530.159,271.678 L530.159,279.616 L547.925,279.616 L547.925,287.5 L521.249,287.5 Z M617.169,282.208 C615.476992,284.15201 613.389012,285.690994 610.905,286.825 C608.420988,287.959006 605.559016,288.526 602.319,288.526 C599.366985,288.526 596.640013,288.040005 594.138,287.068 C591.635987,286.095995 589.467009,284.719009 587.631,282.937 C585.794991,281.154991 584.355005,279.022012 583.311,276.538 C582.266995,274.053988 581.745,271.318015 581.745,268.33 C581.745,265.269985 582.275995,262.498012 583.338,260.014 C584.400005,257.529988 585.866991,255.415009 587.739,253.669 C589.611009,251.922991 591.806987,250.582005 594.327,249.646 C596.847013,248.709995 599.564985,248.242 602.481,248.242 C605.181013,248.242 607.835987,248.718995 610.446,249.673 C613.056013,250.627005 615.170992,252.021991 616.791,253.858 L610.527,260.122 C609.662996,258.933994 608.529007,258.052003 607.125,257.476 C605.720993,256.899997 604.281007,256.612 602.805,256.612 C601.184992,256.612 599.700007,256.908997 598.35,257.503 C596.999993,258.097003 595.839005,258.915995 594.867,259.96 C593.894995,261.004005 593.139003,262.236993 592.599,263.659 C592.058997,265.081007 591.789,266.637992 591.789,268.33 C591.789,270.058009 592.058997,271.641993 592.599,273.082 C593.139003,274.522007 593.885995,275.754995 594.84,276.781 C595.794005,277.807005 596.936993,278.607997 598.269,279.184 C599.601007,279.760003 601.058992,280.048 602.643,280.048 C604.479009,280.048 606.080993,279.688004 607.449,278.968 C608.817007,278.247996 609.914996,277.312006 610.743,276.16 L617.169,282.208 Z M668.315,268.222 C668.315,271.246015 667.793005,274.008987 666.749,276.511 C665.704995,279.013013 664.256009,281.154991 662.402,282.937 C660.547991,284.719009 658.343013,286.095995 655.787,287.068 C653.230987,288.040005 650.459015,288.526 647.471,288.526 C644.482985,288.526 641.720013,288.040005 639.182,287.068 C636.643987,286.095995 634.448009,284.719009 632.594,282.937 C630.739991,281.154991 629.291005,279.013013 628.247,276.511 C627.202995,274.008987 626.681,271.246015 626.681,268.222 C626.681,265.161985 627.202995,262.399012 628.247,259.933 C629.291005,257.466988 630.739991,255.370009 632.594,253.642 C634.448009,251.913991 636.643987,250.582005 639.182,249.646 C641.720013,248.709995 644.482985,248.242 647.471,248.242 C650.459015,248.242 653.230987,248.709995 655.787,249.646 C658.343013,250.582005 660.547991,251.913991 662.402,253.642 C664.256009,255.370009 665.704995,257.466988 666.749,259.933 C667.793005,262.399012 668.315,265.161985 668.315,268.222 Z M658.433,268.222 C658.433,266.565992 658.163003,265.018007 657.623,263.578 C657.082997,262.137993 656.336005,260.905005 655.382,259.879 C654.427995,258.852995 653.276007,258.043003 651.926,257.449 C650.575993,256.854997 649.091008,256.558 647.471,256.558 C645.850992,256.558 644.375007,256.854997 643.043,257.449 C641.710993,258.043003 640.559005,258.852995 639.587,259.879 C638.614995,260.905005 637.868003,262.137993 637.346,263.578 C636.823997,265.018007 636.563,266.565992 636.563,268.222 C636.563,269.950009 636.832997,271.542993 637.373,273.001 C637.913003,274.459007 638.659995,275.709995 639.614,276.754 C640.568005,277.798005 641.710993,278.616997 643.043,279.211 C644.375007,279.805003 645.850992,280.102 647.471,280.102 C649.091008,280.102 650.566993,279.805003 651.899,279.211 C653.231007,278.616997 654.382995,277.798005 655.355,276.754 C656.327005,275.709995 657.082997,274.459007 657.623,273.001 C658.163003,271.542993 658.433,269.950009 658.433,268.222 Z M702.613,259.204 C701.820996,258.195995 700.786006,257.395003 699.508,256.801 C698.229994,256.206997 696.997006,255.91 695.809,255.91 C695.196997,255.91 694.576003,255.963999 693.946,256.072 C693.315997,256.180001 692.749003,256.386998 692.245,256.693 C691.740997,256.999002 691.318002,257.394998 690.976,257.881 C690.633998,258.367002 690.463,258.987996 690.463,259.744 C690.463,260.392003 690.597999,260.931998 690.868,261.364 C691.138001,261.796002 691.533997,262.173998 692.056,262.498 C692.578003,262.822002 693.198996,263.118999 693.919,263.389 C694.639004,263.659001 695.448995,263.937999 696.349,264.226 C697.645006,264.658002 698.994993,265.134997 700.399,265.657 C701.803007,266.179003 703.080994,266.871996 704.233,267.736 C705.385006,268.600004 706.338996,269.670994 707.095,270.949 C707.851004,272.227006 708.229,273.81999 708.229,275.728 C708.229,277.924011 707.824004,279.822992 707.014,281.425 C706.203996,283.027008 705.115007,284.349995 703.747,285.394 C702.378993,286.438005 700.813009,287.211997 699.049,287.716 C697.284991,288.220003 695.467009,288.472 693.595,288.472 C690.858986,288.472 688.213013,287.995005 685.657,287.041 C683.100987,286.086995 680.977008,284.728009 679.285,282.964 L685.333,276.808 C686.269005,277.960006 687.501992,278.922996 689.032,279.697 C690.562008,280.471004 692.082992,280.858 693.595,280.858 C694.279003,280.858 694.944997,280.786001 695.593,280.642 C696.241003,280.497999 696.807998,280.264002 697.294,279.94 C697.780002,279.615998 698.166999,279.184003 698.455,278.644 C698.743001,278.103997 698.887,277.456004 698.887,276.7 C698.887,275.979996 698.707002,275.368003 698.347,274.864 C697.986998,274.359997 697.474003,273.901002 696.808,273.487 C696.141997,273.072998 695.314005,272.695002 694.324,272.353 C693.333995,272.010998 692.209006,271.642002 690.949,271.246 C689.724994,270.849998 688.528006,270.382003 687.358,269.842 C686.187994,269.301997 685.144005,268.609004 684.226,267.763 C683.307995,266.916996 682.570003,265.891006 682.012,264.685 C681.453997,263.478994 681.175,262.012009 681.175,260.284 C681.175,258.159989 681.606996,256.342008 682.471,254.83 C683.335004,253.317992 684.468993,252.076005 685.873,251.104 C687.277007,250.131995 688.860991,249.421002 690.625,248.971 C692.389009,248.520998 694.170991,248.296 695.971,248.296 C698.131011,248.296 700.335989,248.691996 702.586,249.484 C704.836011,250.276004 706.806992,251.445992 708.499,252.994 L702.613,259.204 Z M737.991,257.152 L737.991,287.5 L728.757,287.5 L728.757,257.152 L717.957,257.152 L717.957,249.268 L748.791,249.268 L748.791,257.152 L737.991,257.152 Z M821.059,268.222 C821.059,271.246015 820.537005,274.008987 819.493,276.511 C818.448995,279.013013 817.000009,281.154991 815.146,282.937 C813.291991,284.719009 811.087013,286.095995 808.531,287.068 C805.974987,288.040005 803.203015,288.526 800.215,288.526 C797.226985,288.526 794.464013,288.040005 791.926,287.068 C789.387987,286.095995 787.192009,284.719009 785.338,282.937 C783.483991,281.154991 782.035005,279.013013 780.991,276.511 C779.946995,274.008987 779.425,271.246015 779.425,268.222 C779.425,265.161985 779.946995,262.399012 780.991,259.933 C782.035005,257.466988 783.483991,255.370009 785.338,253.642 C787.192009,251.913991 789.387987,250.582005 791.926,249.646 C794.464013,248.709995 797.226985,248.242 800.215,248.242 C803.203015,248.242 805.974987,248.709995 808.531,249.646 C811.087013,250.582005 813.291991,251.913991 815.146,253.642 C817.000009,255.370009 818.448995,257.466988 819.493,259.933 C820.537005,262.399012 821.059,265.161985 821.059,268.222 Z M811.177,268.222 C811.177,266.565992 810.907003,265.018007 810.367,263.578 C809.826997,262.137993 809.080005,260.905005 808.126,259.879 C807.171995,258.852995 806.020007,258.043003 804.67,257.449 C803.319993,256.854997 801.835008,256.558 800.215,256.558 C798.594992,256.558 797.119007,256.854997 795.787,257.449 C794.454993,258.043003 793.303005,258.852995 792.331,259.879 C791.358995,260.905005 790.612003,262.137993 790.09,263.578 C789.567997,265.018007 789.307,266.565992 789.307,268.222 C789.307,269.950009 789.576997,271.542993 790.117,273.001 C790.657003,274.459007 791.403995,275.709995 792.358,276.754 C793.312005,277.798005 794.454993,278.616997 795.787,279.211 C797.119007,279.805003 798.594992,280.102 800.215,280.102 C801.835008,280.102 803.310993,279.805003 804.643,279.211 C805.975007,278.616997 807.126995,277.798005 808.099,276.754 C809.071005,275.709995 809.826997,274.459007 810.367,273.001 C810.907003,271.542993 811.177,269.950009 811.177,268.222 Z M844.287,257.152 L844.287,265.036 L859.083,265.036 L859.083,272.65 L844.287,272.65 L844.287,287.5 L835.161,287.5 L835.161,249.268 L860.325,249.268 L860.325,257.152 L844.287,257.152 Z M463.118,347.5 L463.118,309.268 L488.822,309.268 L488.822,317.098 L472.028,317.098 L472.028,324.28 L487.904,324.28 L487.904,331.678 L472.028,331.678 L472.028,339.616 L489.794,339.616 L489.794,347.5 L463.118,347.5 Z M539.59,328.276 C539.59,331.624017 538.969006,334.512988 537.727,336.943 C536.484994,339.373012 534.84701,341.370992 532.813,342.937 C530.77899,344.503008 528.484013,345.654996 525.928,346.393 C523.371987,347.131004 520.780013,347.5 518.152,347.5 L503.896,347.5 L503.896,309.268 L517.72,309.268 C520.420013,309.268 523.083987,309.582997 525.712,310.213 C528.340013,310.843003 530.67999,311.886993 532.732,313.345 C534.78401,314.803007 536.439994,316.755988 537.7,319.204 C538.960006,321.652012 539.59,324.675982 539.59,328.276 Z M529.978,328.276 C529.978,326.115989 529.627004,324.325007 528.925,322.903 C528.222996,321.480993 527.287006,320.347004 526.117,319.501 C524.946994,318.654996 523.615007,318.052002 522.121,317.692 C520.626993,317.331998 519.088008,317.152 517.504,317.152 L512.914,317.152 L512.914,339.508 L517.288,339.508 C518.944008,339.508 520.536992,339.319002 522.067,338.941 C523.597008,338.562998 524.946994,337.942004 526.117,337.078 C527.287006,336.213996 528.222996,335.062007 528.925,333.622 C529.627004,332.181993 529.978,330.400011 529.978,328.276 Z M586.092,333.082 C586.092,335.386012 585.705004,337.482991 584.931,339.373 C584.156996,341.263009 583.050007,342.882993 581.61,344.233 C580.169993,345.583007 578.43301,346.635996 576.399,347.392 C574.36499,348.148004 572.106012,348.526 569.622,348.526 C567.101987,348.526 564.83401,348.148004 562.818,347.392 C560.80199,346.635996 559.092007,345.583007 557.688,344.233 C556.283993,342.882993 555.204004,341.263009 554.448,339.373 C553.691996,337.482991 553.314,335.386012 553.314,333.082 L553.314,309.268 L562.494,309.268 L562.494,332.326 C562.494,333.370005 562.628999,334.359995 562.899,335.296 C563.169001,336.232005 563.582997,337.068996 564.141,337.807 C564.699003,338.545004 565.436995,339.129998 566.355,339.562 C567.273005,339.994002 568.379994,340.21 569.676,340.21 C570.972006,340.21 572.078995,339.994002 572.997,339.562 C573.915005,339.129998 574.661997,338.545004 575.238,337.807 C575.814003,337.068996 576.227999,336.232005 576.48,335.296 C576.732001,334.359995 576.858,333.370005 576.858,332.326 L576.858,309.268 L586.092,309.268 L586.092,333.082 Z M635.186,342.208 C633.493992,344.15201 631.406012,345.690994 628.922,346.825 C626.437988,347.959006 623.576016,348.526 620.336,348.526 C617.383985,348.526 614.657013,348.040005 612.155,347.068 C609.652987,346.095995 607.484009,344.719009 605.648,342.937 C603.811991,341.154991 602.372005,339.022012 601.328,336.538 C600.283995,334.053988 599.762,331.318015 599.762,328.33 C599.762,325.269985 600.292995,322.498012 601.355,320.014 C602.417005,317.529988 603.883991,315.415009 605.756,313.669 C607.628009,311.922991 609.823987,310.582005 612.344,309.646 C614.864013,308.709995 617.581985,308.242 620.498,308.242 C623.198013,308.242 625.852987,308.718995 628.463,309.673 C631.073013,310.627005 633.187992,312.021991 634.808,313.858 L628.544,320.122 C627.679996,318.933994 626.546007,318.052003 625.142,317.476 C623.737993,316.899997 622.298007,316.612 620.822,316.612 C619.201992,316.612 617.717007,316.908997 616.367,317.503 C615.016993,318.097003 613.856005,318.915995 612.884,319.96 C611.911995,321.004005 611.156003,322.236993 610.616,323.659 C610.075997,325.081007 609.806,326.637992 609.806,328.33 C609.806,330.058009 610.075997,331.641993 610.616,333.082 C611.156003,334.522007 611.902995,335.754995 612.857,336.781 C613.811005,337.807005 614.953993,338.607997 616.286,339.184 C617.618007,339.760003 619.075992,340.048 620.66,340.048 C622.496009,340.048 624.097993,339.688004 625.466,338.968 C626.834007,338.247996 627.931996,337.312006 628.76,336.16 L635.186,342.208 Z M672.4,347.5 L669.43,339.994 L654.634,339.994 L651.826,347.5 L641.782,347.5 L657.82,309.268 L666.784,309.268 L682.66,347.5 L672.4,347.5 Z M662.14,319.474 L657.28,332.596 L666.892,332.596 L662.14,319.474 Z M706.968,317.152 L706.968,347.5 L697.734,347.5 L697.734,317.152 L686.934,317.152 L686.934,309.268 L717.768,309.268 L717.768,317.152 L706.968,317.152 Z M729.98,347.5 L729.98,309.268 L739.268,309.268 L739.268,347.5 L729.98,347.5 Z M795.004,328.222 C795.004,331.246015 794.482005,334.008987 793.438,336.511 C792.393995,339.013013 790.945009,341.154991 789.091,342.937 C787.236991,344.719009 785.032013,346.095995 782.476,347.068 C779.919987,348.040005 777.148015,348.526 774.16,348.526 C771.171985,348.526 768.409013,348.040005 765.871,347.068 C763.332987,346.095995 761.137009,344.719009 759.283,342.937 C757.428991,341.154991 755.980005,339.013013 754.936,336.511 C753.891995,334.008987 753.37,331.246015 753.37,328.222 C753.37,325.161985 753.891995,322.399012 754.936,319.933 C755.980005,317.466988 757.428991,315.370009 759.283,313.642 C761.137009,311.913991 763.332987,310.582005 765.871,309.646 C768.409013,308.709995 771.171985,308.242 774.16,308.242 C777.148015,308.242 779.919987,308.709995 782.476,309.646 C785.032013,310.582005 787.236991,311.913991 789.091,313.642 C790.945009,315.370009 792.393995,317.466988 793.438,319.933 C794.482005,322.399012 795.004,325.161985 795.004,328.222 Z M785.122,328.222 C785.122,326.565992 784.852003,325.018007 784.312,323.578 C783.771997,322.137993 783.025005,320.905005 782.071,319.879 C781.116995,318.852995 779.965007,318.043003 778.615,317.449 C777.264993,316.854997 775.780008,316.558 774.16,316.558 C772.539992,316.558 771.064007,316.854997 769.732,317.449 C768.399993,318.043003 767.248005,318.852995 766.276,319.879 C765.303995,320.905005 764.557003,322.137993 764.035,323.578 C763.512997,325.018007 763.252,326.565992 763.252,328.222 C763.252,329.950009 763.521997,331.542993 764.062,333.001 C764.602003,334.459007 765.348995,335.709995 766.303,336.754 C767.257005,337.798005 768.399993,338.616997 769.732,339.211 C771.064007,339.805003 772.539992,340.102 774.16,340.102 C775.780008,340.102 777.255993,339.805003 778.588,339.211 C779.920007,338.616997 781.071995,337.798005 782.044,336.754 C783.016005,335.709995 783.771997,334.459007 784.312,333.001 C784.852003,331.542993 785.122,329.950009 785.122,328.222 Z M833.406,347.5 L818.016,322.498 L817.854,322.498 L818.07,347.5 L809.106,347.5 L809.106,309.268 L819.636,309.268 L834.972,334.216 L835.134,334.216 L834.918,309.268 L843.882,309.268 L843.882,347.5 L833.406,347.5 Z M392.5,213 L398.5,213 L398.5,388 L392.5,388 L392.5,213 Z M905.5,213 L911.5,213 L911.5,388 L905.5,388 L905.5,213 Z" id="the-cost-of-education-title-card"></path>
            </g>
        </g>
    </g>
</svg>